<?xml version="1.0" encoding="utf-8"?>
<!-- Generator: Adobe Illustrator 24.0.2, SVG Export Plug-In . SVG Version: 6.00 Build 0)  -->
<svg version="1.1" xmlns="http://www.w3.org/2000/svg" xmlns:xlink="http://www.w3.org/1999/xlink" x="0px" y="0px"
	 viewBox="0 0 68 67" style="enable-background:new 0 0 68 67;" xml:space="preserve">
<style type="text/css">
	.st0{fill:#F4F4F4;}
	.st1{clip-path:url(#SVGID_2_);}
	.st2{opacity:0.67;}
	.st3{fill:#FFDE59;}
	.st4{opacity:0.14;fill:#FFDE59;}
	.st5{fill:#FFFFFF;}
	.st6{opacity:0.5;fill:#FFFFFF;}
	.st7{fill:#4F4F4F;}
	.st8{fill:none;stroke:#FFDE59;stroke-width:3;stroke-miterlimit:10;}
	.st9{fill:none;stroke:#4F4F4F;stroke-width:0.5;stroke-miterlimit:10;}
</style>
<g id="Capa_2">
</g>
<g id="Guias">
	<g>
		<path class="st3" d="M46.14,34.56c-8.41,0-16.68,0-25.24,0c0.41-2.97-1.01-6.17,1.37-8.73c0.93-1,2.4-1.53,3.66-2.21
			c0.63-0.34,1.35-0.53,2.03-0.79c1.74-0.67,1.68-0.71,0.64-2.28c-0.7-1.07-1.49-1.87-2.62-2.51c-0.73-0.41-1.52-1.32-1.63-2.1
			c-0.45-3.36-0.77-6.78,0.9-9.95c1.95-3.71,6.09-5.63,10.17-4.79c4.11,0.85,7.12,4.18,7.47,8.38c0.14,1.64,0.13,3.29,0.12,4.94
			c-0.02,1.94-1.1,3.11-2.72,4.13c-1.04,0.66-1.7,1.95-2.44,3.02c-0.07,0.1,0.42,0.79,0.76,0.94c1.15,0.51,2.35,0.9,3.53,1.35
			c2.79,1.07,3.98,2.76,4,5.73C46.15,31.28,46.14,32.87,46.14,34.56z M40.83,10.8c0.12-2.81-1-5.01-3.31-6.5
			c-2.53-1.64-5.25-1.67-7.82-0.08c-2.39,1.48-3.53,3.72-3.46,6.59c2.71-0.44,5.46-0.44,7.32-2.98
			C35.42,10.39,38.15,10.35,40.83,10.8z M38.36,31.9c-1.43-0.71-2.7-1.41-4.04-1.96c-0.45-0.19-1.12-0.19-1.57,0
			c-1.33,0.56-2.6,1.26-3.99,1.96c-0.74-2.14-1.43-4.17-2.12-6.18c-3.48,0.83-4.01,2.39-3.38,6.66c6.9,0,13.8,0,20.68,0
			c0.48-4.62-0.35-6.16-3.52-6.55C39.75,27.77,39.09,29.74,38.36,31.9z M37.78,15.15c-0.01,0-0.02,0-0.03,0
			c0-0.39-0.04-0.78,0.01-1.16c0.15-1.1-0.36-1.4-1.36-1.87c-2-0.94-3.77-1.18-5.65,0.07c-0.15,0.1-0.42,0.03-0.55,0.14
			c-0.31,0.27-0.8,0.59-0.81,0.9c-0.07,1.35-0.08,2.71,0.06,4.05c0.23,2.15,2.06,3.7,4.16,3.66c2.06-0.04,3.77-1.55,4.05-3.63
			C37.75,16.61,37.74,15.88,37.78,15.15z M38.46,24.94c-1.42-0.59-2.45,0.45-3.22,3.06c0.58,0.28,1.18,0.56,1.89,0.9
			C37.59,27.53,38.01,26.27,38.46,24.94z M29.96,28.91c0.76-0.38,1.35-0.68,1.93-0.97c-1.21-3.16-1.89-3.76-3.24-2.88
			C29.07,26.28,29.49,27.5,29.96,28.91z M33.54,26.25c0.74-1.24,1.34-2.26,1.96-3.3c-1.39,0-2.61,0-3.93,0
			C32.2,24.01,32.8,25.03,33.54,26.25z M27.11,13.11c-1.21,1.22-1.2,1.98,0,3.02C27.11,15.12,27.11,14.17,27.11,13.11z M39.93,16.27
			c1.25-1.3,1.22-2.1,0-3.12C39.93,14.16,39.93,15.11,39.93,16.27z"/>
		<path class="st3" d="M46.47,39.77c0.15-0.2,0.23-0.27,0.26-0.36c0.93-2.66,0.93-2.66,3.77-2.66c1.6,0,3.19,0,4.85,0
			c0.29,1.03,0.57,1.99,0.88,3.09c1.01-0.56,1.88-1.04,2.79-1.54c1.85,1.88,3.67,3.74,5.54,5.64c-0.46,0.83-0.94,1.7-1.49,2.7
			c1.1,0.32,2.06,0.6,3.03,0.88c0,2.65,0,5.21,0,7.86c-0.97,0.29-1.92,0.57-3.02,0.9c0.54,0.98,1.01,1.86,1.48,2.71
			c-1.85,1.87-3.69,3.72-5.57,5.61c-0.85-0.47-1.72-0.95-2.74-1.51c-0.31,1.09-0.58,2.05-0.88,3.09c-2.42,0-4.79,0.03-7.15-0.04
			c-0.33-0.01-0.78-0.44-0.93-0.79c-0.29-0.65-0.41-1.38-0.65-2.25c-0.98,0.54-1.85,1.01-2.71,1.48c-1.83-1.87-3.65-3.73-5.56-5.68
			c0.39-0.71,0.88-1.59,1.36-2.47c-0.16-0.14-0.25-0.27-0.37-0.31c-2.63-0.81-2.63-0.81-2.63-3.62c0-1.21,0.07-2.43-0.02-3.63
			c-0.08-1.07,0.24-1.63,1.35-1.74c0.56-0.06,1.1-0.29,1.77-0.49c-0.32-0.56-0.55-0.98-0.79-1.39c-0.24-0.42-0.49-0.84-0.7-1.22
			c1.87-1.84,3.71-3.66,5.69-5.61C44.66,38.77,45.53,39.25,46.47,39.77z M38.8,49.21c0,1.1,0.08,2.13-0.02,3.13
			c-0.12,1.15,0.3,1.75,1.43,1.81c1.45,0.08,1.73,1.31,1.8,2.25c0.05,0.75-0.67,1.55-1.05,2.32c0.1-0.09,0.2-0.18,0.3-0.27
			c0.98,1.18,1.96,2.36,2.93,3.53c0.37-0.2,0.63-0.33,0.88-0.47c1.89-1.11,3.19-0.64,3.73,1.45c0.22,0.86,0.58,1.24,1.48,1.14
			c0.62-0.07,1.27-0.09,1.89,0c1.26,0.18,1.8-0.33,2.03-1.56c0.26-1.42,1.85-2.04,3.09-1.34c0.46,0.26,0.92,0.52,1.39,0.78
			c1.11-1.11,2.16-2.18,3.26-3.28c-0.2-0.37-0.4-0.75-0.62-1.13c-0.92-1.58-0.34-3.03,1.47-3.42c0.97-0.21,1.46-0.58,1.31-1.64
			c-0.08-0.57-0.07-1.17,0-1.74c0.15-1.2-0.22-1.84-1.52-2.06c-1.51-0.25-2.11-1.87-1.35-3.19c0.26-0.45,0.5-0.9,0.63-1.13
			c-1.13-1.24-2.14-2.34-3.14-3.44c-0.29,0.15-0.5,0.25-0.71,0.37c-2.21,1.25-3.23,0.82-4.04-1.55c-0.13-0.39-0.7-0.79-1.13-0.89
			c-0.64-0.15-1.36,0.04-2.02-0.06c-1.32-0.2-1.89,0.31-2.13,1.62c-0.25,1.38-1.88,1.96-3.14,1.25c-0.45-0.25-0.91-0.5-1.31-0.73
			c-1.13,1.14-2.18,2.2-3.24,3.27C42.78,47.03,42.27,48.4,38.8,49.21z"/>
		<path class="st3" d="M21.84,66.1c-6.93,0-13.84,0-20.82,0c0-9.04,0-18.05,0-27.16c6.9,0,13.8,0,20.82,0
			C21.84,47.96,21.84,56.99,21.84,66.1z M19.8,41.02c-5.67,0-11.17,0-16.63,0c0,7.74,0,15.36,0,22.95c5.63,0,11.13,0,16.63,0
			C19.8,56.26,19.8,48.67,19.8,41.02z"/>
		<path class="st3" d="M12.54,36.69c-0.75,0-1.31,0-2,0c-0.04-0.43-0.11-0.85-0.11-1.26c-0.01-5.52-0.02-11.05,0-16.57
			c0.01-3.17,1.09-4.2,4.32-4.21c1.06,0,2.12,0,3.56,0c-0.87-0.92-1.53-1.63-2.25-2.38c0.51-0.41,0.99-0.79,1.41-1.11
			c1.42,1.47,3.02,3.11,4.65,4.79c-1.4,1.38-2.98,2.93-4.69,4.62c-0.44-0.42-0.9-0.86-1.43-1.36c0.72-0.75,1.38-1.44,2.29-2.4
			c-1.8,0-3.31-0.08-4.81,0.03c-0.96,0.07-0.95,0.93-0.95,1.68c0.01,5.48,0,10.95,0,16.43C12.54,35.45,12.54,35.98,12.54,36.69z"/>
		<path class="st3" d="M45.18,16.74c0-0.76,0-1.33,0-2.03c1.94,0,3.88-0.14,5.78,0.04c1.62,0.16,2.57,1.6,2.59,3.53
			c0.03,3.63,0.01,7.27,0.01,10.9c0,0.46,0,0.92,0,1.73c0.95-0.89,1.63-1.52,2.42-2.26c0.42,0.55,0.79,1.04,1.15,1.52
			c-1.51,1.47-3.12,3.04-4.68,4.55c-1.45-1.48-3.02-3.1-4.74-4.87c0.3-0.31,0.75-0.78,1.22-1.27c0.83,0.79,1.48,1.42,2.3,2.2
			c0.07-0.56,0.16-0.91,0.16-1.27c0.01-3.63-0.03-7.27,0.03-10.9c0.02-1.37-0.5-1.95-1.88-1.89C48.14,16.79,46.74,16.74,45.18,16.74
			z"/>
		<path class="st3" d="M34.54,50.4c0,0.75,0,1.31,0,2.03c-2.5,0-4.99,0-7.94,0c0.95,1,1.62,1.7,2.46,2.59
			c-0.53,0.41-1.01,0.78-1.42,1.09c-1.51-1.54-3.09-3.15-4.58-4.68c1.39-1.37,2.99-2.95,4.68-4.61c0.25,0.27,0.68,0.74,1.15,1.26
			c-0.63,0.68-1.28,1.38-2.16,2.33C29.52,50.4,31.99,50.4,34.54,50.4z"/>
		<path class="st3" d="M43.44,50.06c0,1.05,0,2.01,0,3.02C42.24,52.04,42.23,51.28,43.44,50.06z"/>
		<path class="st3" d="M55.08,45.65c0-1.16,0-2.11,0-3.12C56.3,43.55,56.32,44.35,55.08,45.65z"/>
		<path class="st3" d="M51.42,59.85c-4.65,0.01-8.39-3.75-8.37-8.42c0.01-4.62,3.68-8.3,8.3-8.33c4.67-0.04,8.43,3.67,8.46,8.33
			C59.83,56.07,56.08,59.84,51.42,59.85z M57.7,51.43c-0.01-3.47-2.82-6.25-6.31-6.25c-3.47,0-6.26,2.81-6.25,6.3
			c0.01,3.46,2.84,6.28,6.3,6.26C54.9,57.73,57.71,54.9,57.7,51.43z"/>
		<path class="st3" d="M5.24,45.06c0-0.66,0-1.26,0-1.95c4.16,0,8.25,0,12.44,0c0,0.64,0,1.24,0,1.95
			C13.61,45.06,9.52,45.06,5.24,45.06z"/>
		<path class="st3" d="M5.23,53.48c0-0.69,0-1.25,0-1.94c4.15,0,8.27,0,12.48,0c0,0.64,0,1.25,0,1.94
			C13.57,53.48,9.48,53.48,5.23,53.48z"/>
		<path class="st3" d="M17.72,55.78c0,0.69,0,1.25,0,1.9c-4.16,0-8.24,0-12.45,0c0-0.59,0-1.19,0-1.9
			C9.38,55.78,13.5,55.78,17.72,55.78z"/>
		<path class="st3" d="M13.45,61.88c-2.74,0-5.42,0-8.19,0c0-0.66,0-1.26,0-1.94c2.75,0,5.42,0,8.19,0
			C13.45,60.6,13.45,61.2,13.45,61.88z"/>
		<path class="st3" d="M9.42,49.34c0-0.79,0-1.36,0-2.09c1.44,0,2.83,0,4.22,0c1.34,0,2.68,0,4.08,0c0,0.73,0,1.29,0,2.09
			c-1.39,0-2.77,0-4.15,0C12.23,49.34,10.88,49.34,9.42,49.34z"/>
		<path class="st3" d="M7.18,49.29c-0.77,0-1.29,0-1.92,0c0-0.65,0-1.25,0-1.95c0.61,0,1.21,0,1.92,0
			C7.18,47.97,7.18,48.61,7.18,49.29z"/>
		<path class="st3" d="M15.77,61.84c0-0.68,0-1.24,0-1.9c0.67,0,1.27,0,1.95,0c0,0.65,0,1.22,0,1.9
			C17.1,61.84,16.51,61.84,15.77,61.84z"/>
		<path class="st3" d="M55.62,51.53c-0.04,2.25-1.97,4.14-4.21,4.13c-2.3,0-4.23-1.98-4.19-4.29c0.04-2.31,2.04-4.2,4.34-4.12
			C53.82,47.34,55.67,49.29,55.62,51.53z M53.49,51.43c-0.02-1.06-1.01-2.05-2.07-2.05c-1.07-0.01-2.06,0.97-2.08,2.04
			c-0.02,1.14,1.01,2.16,2.14,2.11C52.6,53.48,53.51,52.53,53.49,51.43z"/>
	</g>
</g>
</svg>
