<?xml version="1.0" encoding="utf-8"?>
<!-- Generator: Adobe Illustrator 24.0.2, SVG Export Plug-In . SVG Version: 6.00 Build 0)  -->
<svg version="1.1" xmlns="http://www.w3.org/2000/svg" xmlns:xlink="http://www.w3.org/1999/xlink" x="0px" y="0px"
	 viewBox="0 0 128 126" style="enable-background:new 0 0 128 126;" xml:space="preserve">
<style type="text/css">
	.st0{opacity:0.67;}
	.st1{fill:#F4F4F4;}
	.st2{fill:#FFDE59;}
	.st3{opacity:0.14;fill:#FFDE59;}
	.st4{fill:#FFFFFF;}
	.st5{opacity:0.5;fill:#FFFFFF;}
	.st6{fill:#4F4F4F;}
	.st7{fill:none;stroke:#FFDE59;stroke-width:3;stroke-miterlimit:10;}
	.st8{fill:none;stroke:#4F4F4F;stroke-width:0.5;stroke-miterlimit:10;}
</style>
<g id="Capa_2">
</g>
<g id="Guias">
	<g>
		<path class="st7" d="M81.23,117.89c0.01-7.36,0.04-14.72,0.02-22.08c0-0.8,0.23-1.29,0.87-1.78c7.33-5.59,14.64-11.2,21.93-16.84
			c4.3-3.33,5.68-8.59,3.6-13.4c-2.7-6.25-10.63-8.63-16.23-4.75c-2.9,2.01-5.64,4.27-8.45,6.41c-0.45,0.34-0.92,0.63-1.59,1.08
			c0.31-2.43,0.75-4.6,1.73-6.63c3.41-7.1,11.2-11.41,18.61-10.3c8.49,1.27,14.66,7.23,15.94,15.37c0.05,0.35,0.17,0.69,0.25,1.03
			c0,17.3,0,34.6,0,51.89C105.67,117.89,93.45,117.89,81.23,117.89z"/>
		<path class="st7" d="M10.68,65.79c0.41-1.51,0.67-3.07,1.25-4.51c2.77-6.86,7.89-10.92,15.21-11.7c7.35-0.78,13.19,2.2,17.24,8.39
			c1.69,2.58,2.74,5.48,2.81,8.65c0,0.17,0,0.33,0,0.6c-1.74-1.31-3.4-2.53-5.02-3.79c-1.83-1.42-3.55-3.01-5.47-4.29
			c-6.86-4.55-14.86-1.13-17.03,5.49c-1.55,4.71-0.04,9.4,4.06,12.57c6.39,4.93,12.8,9.84,19.2,14.75c1.22,0.94,2.42,1.9,3.66,2.79
			c0.55,0.4,0.74,0.84,0.74,1.52c-0.03,6.79-0.02,13.57-0.01,20.36c0,0.43,0.02,0.86,0.03,1.28c-12.22,0-24.45,0-36.67,0
			C10.68,100.53,10.68,83.16,10.68,65.79z"/>
		<path class="st7" d="M101.38,11.11c0.23,0.07,0.46,0.18,0.7,0.22c8.31,1.33,14.26,8.11,14.49,16.51
			c0.22,8.06-5.42,15.18-13.43,16.97c-9.18,2.05-18.48-4.07-20.24-13.33c-1.81-9.49,4.45-18.6,13.82-20.11
			c0.34-0.06,0.68-0.17,1.02-0.26C98.95,11.11,100.17,11.11,101.38,11.11z"/>
		<path class="st7" d="M30.83,11.11c1.86,0.58,3.82,0.95,5.57,1.77c6.78,3.19,10.54,10.51,9.38,17.97
			C44.64,38.2,38.77,43.96,31.38,45c-9.21,1.3-17.86-5.1-19.17-14.18c-1.37-9.46,4.86-18.02,14.17-19.49
			c0.27-0.04,0.54-0.15,0.81-0.23C28.4,11.11,29.62,11.11,30.83,11.11z"/>
		<path class="st7" d="M67.36,91.92c-0.07,2.3-1.29,4.42-3.76,5.69c-2.54,1.3-5.08,1.09-7.37-0.62c-3.07-2.28-6.07-4.65-9.1-6.97
			c-6.97-5.35-13.95-10.69-20.92-16.05c-2.64-2.03-3.63-4.92-2.77-7.84c1.23-4.18,6.5-6.57,10.46-3.71c1.7,1.23,3.35,2.54,5.02,3.81
			c4.6,3.5,9.21,7,13.81,10.51c3.92,2.99,7.82,6,11.72,9.02C66.41,87.27,67.35,89.16,67.36,91.92z"/>
		<path class="st7" d="M69.53,97.86c3.15-4.79,2.66-11.01-2.2-15.22c0.27-0.23,0.52-0.46,0.79-0.66
			c5.66-4.36,11.32-8.72,16.99-13.06c2.79-2.14,5.59-4.28,8.43-6.35c3.05-2.23,7.19-1.64,9.48,1.26c2.34,2.96,1.94,7.33-1.03,9.72
			c-3.34,2.69-6.77,5.25-10.17,7.86c-6.62,5.09-13.25,10.19-19.88,15.27c-0.69,0.53-1.47,0.94-2.22,1.4
			C69.65,98,69.59,97.93,69.53,97.86z"/>
	</g>
</g>
</svg>
