<?xml version="1.0" encoding="utf-8"?>
<!-- Generator: Adobe Illustrator 24.0.2, SVG Export Plug-In . SVG Version: 6.00 Build 0)  -->
<svg version="1.1" xmlns="http://www.w3.org/2000/svg" xmlns:xlink="http://www.w3.org/1999/xlink" x="0px" y="0px"
	 viewBox="0 0 128 126" style="enable-background:new 0 0 128 126;" xml:space="preserve">
<style type="text/css">
	.st0{opacity:0.67;}
	.st1{fill:#F4F4F4;}
	.st2{fill:#FFDE59;}
	.st3{opacity:0.14;fill:#FFDE59;}
	.st4{fill:#FFFFFF;}
	.st5{opacity:0.5;fill:#FFFFFF;}
	.st6{fill:#4F4F4F;}
	.st7{fill:none;stroke:#FFDE59;stroke-width:3;stroke-miterlimit:10;}
	.st8{fill:none;stroke:#4F4F4F;stroke-width:0.5;stroke-miterlimit:10;}
</style>
<g id="Capa_2">
</g>
<g id="Guias">
	<g>
		<path class="st2" d="M63.09,89.86c-18.98,0.09-34.47-15.27-34.61-34.33C28.35,36.46,43.9,20.85,63,20.86
			c19.02,0.02,34.44,15.42,34.48,34.45C97.51,74.31,82.13,89.77,63.09,89.86z M62.98,24.51c-17.02-0.01-30.85,13.82-30.85,30.84
			c0,17.03,13.82,30.85,30.84,30.85c17.02,0,30.85-13.83,30.85-30.85C93.83,38.33,80.02,24.52,62.98,24.51z"/>
		<path class="st2" d="M57.82,100.54c-0.24,1.36-0.41,2.36-0.58,3.33c-20.97-1.71-42.29-20.23-43.26-46.86
			C13.05,31.81,31.8,9.73,57.18,6.73c0.18,1.04,0.37,2.09,0.6,3.4C44,12.24,32.95,18.66,25.19,30.23
			c-5.3,7.91-7.81,16.69-7.56,26.22c0.3,11.25,4.22,21.1,11.76,29.44C36.93,94.23,46.45,98.92,57.82,100.54z"/>
		<path class="st2" d="M68.75,104.01c-0.2-1.15-0.37-2.14-0.58-3.41c14.86-2.3,26.41-9.53,34.04-22.52
			c3.72-6.34,5.82-13.19,5.96-20.48c-0.31-0.19-0.37-0.26-0.45-0.27c-5.84-0.72-5.84-0.72-2.8-5.8c1.07-1.78,2.1-3.58,3.21-5.33
			c1.4-2.22,2.71-2.29,4.06-0.14c1.61,2.56,3.17,5.15,4.66,7.78c1.19,2.11,0.52,3.38-1.99,3.27c-2.38-0.11-2.99,0.71-3.16,3.02
			C110.04,82.5,91.97,101.03,68.75,104.01z M112.3,53.39c-0.74-1.23-1.32-2.2-2.11-3.52c-0.78,1.34-1.35,2.3-2.06,3.52
			C109.65,53.39,110.8,53.39,112.3,53.39z"/>
		<path class="st2" d="M98.66,10.03c1.09-0.87,1.68-1.7,2.44-1.89c3.01-0.74,4.73-2.53,5.49-5.52c0.17-0.68,1.21-1.49,1.93-1.58
			c0.49-0.07,1.49,0.91,1.65,1.58c0.75,2.99,2.48,4.77,5.48,5.53c0.7,0.18,1.67,1.25,1.63,1.87c-0.04,0.65-1.03,1.6-1.76,1.79
			c-2.91,0.74-4.56,2.49-5.32,5.36c-0.19,0.72-1.2,1.71-1.83,1.71c-0.63,0-1.63-0.98-1.82-1.71c-0.77-2.87-2.43-4.62-5.33-5.36
			C100.44,11.62,99.8,10.85,98.66,10.03z M106.49,9.83c0.64,0.8,1.22,1.52,1.53,1.92c0.93-0.65,1.69-1.19,2.29-1.61
			c-0.68-0.84-1.26-1.56-1.91-2.38C107.66,8.56,107.08,9.19,106.49,9.83z"/>
		<path class="st2" d="M17.67,110.59c-0.93-1.22-1.73-1.83-1.93-2.6c-0.74-2.88-2.41-4.62-5.31-5.38c-0.74-0.2-1.27-1.16-1.9-1.77
			c0.67-0.67,1.22-1.71,2.02-1.94c2.77-0.79,4.4-2.43,5.17-5.21c0.22-0.78,1.29-1.31,1.98-1.96c0.6,0.64,1.54,1.19,1.75,1.94
			c0.76,2.76,2.38,4.43,5.16,5.22c0.79,0.22,1.36,1.27,2.03,1.94c-0.71,0.64-1.32,1.63-2.14,1.86c-2.68,0.77-4.26,2.37-4.99,5.04
			C19.26,108.59,18.51,109.31,17.67,110.59z M17.58,98.6c-0.83,0.89-1.44,1.54-2,2.14c0.72,0.79,1.29,1.42,1.72,1.89
			c0.77-0.73,1.47-1.4,2.12-2.01C18.86,100.01,18.28,99.37,17.58,98.6z"/>
		<path class="st2" d="M98.38,21.42c-0.85,0.88-1.6,1.66-2.02,2.1c-4.6-3.07-8.66-6.38-13.23-8.65c-4.57-2.28-9.65-3.52-14.83-5.33
			c0.09-0.58,0.24-1.64,0.42-2.88C80.4,8.19,90.12,13.05,98.38,21.42z"/>
		<path class="st2" d="M61.28,9.78c-0.06-1.14-0.12-2.13-0.19-3.29c1.32,0,2.39,0,3.76,0c-0.06,1.13-0.11,2.11-0.18,3.29
			C63.58,9.78,62.59,9.78,61.28,9.78z"/>
		<path class="st2" d="M61.3,100.89c1.19,0,2.18,0,3.36,0c0.07,1.12,0.13,2.12,0.21,3.31c-1.26,0-2.33,0-3.73,0
			C61.19,103.1,61.24,102.05,61.3,100.89z"/>
		<path class="st2" d="M52.08,66.26c-3,0-5.58-0.05-8.16,0.02c-2,0.05-2.77-0.85-2.75-2.81c0.06-5.35,0.09-10.71-0.01-16.06
			c-0.04-2.31,0.98-3.05,3.13-2.97c2.48,0.1,4.97,0.02,7.79,0.02c0-2.86,0.06-5.5-0.02-8.15c-0.06-2,0.83-2.79,2.8-2.77
			c5.44,0.05,10.88,0.05,16.32,0c2.03-0.02,2.77,0.9,2.72,2.85c-0.07,2.57-0.02,5.15-0.02,8.07c2.87,0,5.51,0.05,8.16-0.02
			c2-0.05,2.78,0.83,2.76,2.81c-0.06,5.44-0.06,10.88,0,16.32c0.02,2.04-0.93,2.76-2.86,2.71c-2.57-0.07-5.15-0.02-8.06-0.02
			c0,2.86-0.05,5.51,0.02,8.15c0.06,2.01-0.84,2.78-2.8,2.76c-5.44-0.05-10.88-0.05-16.32,0c-2.03,0.02-2.77-0.91-2.71-2.85
			C52.13,71.75,52.08,69.18,52.08,66.26z M70.24,73.39c0-2.81,0.06-5.39-0.02-7.97c-0.06-1.98,0.76-2.86,2.76-2.81
			c2.65,0.07,5.3,0.02,7.94,0.02c0-5.02,0-9.71,0-14.52c-2.71,0-5.21-0.09-7.71,0.03c-2.28,0.1-3.1-0.88-3-3.09
			c0.11-2.55,0.03-5.11,0.03-7.7c-5,0-9.62,0-14.52,0c0,2.7-0.07,5.27,0.02,7.84c0.07,2.1-0.77,3.01-2.9,2.94
			c-2.64-0.09-5.28-0.02-7.86-0.02c0,5.05,0,9.68,0,14.52c2.73,0,5.31,0.07,7.89-0.02c2.14-0.08,2.95,0.86,2.87,2.95
			c-0.1,2.57-0.02,5.14-0.02,7.83C60.62,73.39,65.25,73.39,70.24,73.39z"/>
	</g>
</g>
</svg>
