<?xml version="1.0" encoding="utf-8"?>
<!-- Generator: Adobe Illustrator 24.0.2, SVG Export Plug-In . SVG Version: 6.00 Build 0)  -->
<svg version="1.1" xmlns="http://www.w3.org/2000/svg" xmlns:xlink="http://www.w3.org/1999/xlink" x="0px" y="0px"
	 viewBox="0 0 57 67" style="enable-background:new 0 0 57 67;" xml:space="preserve">
<style type="text/css">
	.st0{fill:#F4F4F4;}
	.st1{clip-path:url(#SVGID_2_);}
	.st2{opacity:0.67;}
	.st3{fill:#FFDE59;}
	.st4{opacity:0.14;fill:#FFDE59;}
	.st5{fill:#FFFFFF;}
	.st6{opacity:0.5;fill:#FFFFFF;}
	.st7{fill:#4F4F4F;}
	.st8{fill:none;stroke:#FFDE59;stroke-width:3;stroke-miterlimit:10;}
	.st9{fill:none;stroke:#4F4F4F;stroke-width:0.5;stroke-miterlimit:10;}
</style>
<g id="Capa_2">
</g>
<g id="Guias">
	<g>
		<path class="st3" d="M15.8,9.59c0-0.78,0.04-1.34-0.01-1.89c-0.11-1.37,0.61-1.88,1.87-1.88c0.33,0,0.67-0.03,0.99,0
			c1.88,0.16,3.22-0.14,4.53-2.02c2.79-3.98,9.44-3.21,11.72,1.09c0.37,0.7,0.74,0.98,1.51,0.93c0.99-0.06,1.99-0.03,2.98-0.01
			c1.81,0.04,2.15,0.39,2.17,2.18c0.01,0.46,0,0.93,0,1.6c1.63,0,3.13,0,4.63,0c5.01,0.01,7.52,2.52,7.52,7.52
			c0,13.65,0,27.3,0,40.95c0,4.53-2.37,6.93-6.91,6.93C34.73,65,22.65,65,10.56,64.99c-4.55,0-6.91-2.4-6.91-6.94
			c0-13.65-0.01-27.3-0.01-40.95c0-4.97,2.55-7.5,7.54-7.51C12.65,9.59,14.12,9.59,15.8,9.59z M15.81,12.74
			c-0.38-0.06-0.52-0.09-0.66-0.09c-1.56-0.01-3.13-0.03-4.69,0c-2.32,0.04-3.74,1.41-3.74,3.71c-0.01,14.17-0.01,28.34,0,42.52
			c0,1.7,0.92,2.74,2.63,2.97c0.89,0.12,1.8,0.1,2.7,0.1c11.52,0.01,23.04,0.01,34.55,0c3.18,0,4.08-0.91,4.08-4.04
			c0-9.2,0-18.39,0-27.59c0-4.69,0.01-9.38-0.01-14.08c-0.01-1.84-1.16-3.37-2.87-3.5c-2.01-0.16-4.04-0.04-6.22-0.04
			c0,0.98,0,1.87,0,2.76c-0.01,2.08-0.42,2.5-2.5,2.5c-5.17,0.01-10.33,0-15.5,0c-1.85,0-3.7,0.02-5.55-0.01
			c-1.73-0.02-2.19-0.48-2.22-2.19C15.8,14.79,15.81,13.8,15.81,12.74z M18.93,8.86c0,2.15,0,4.07,0,5.96c6.58,0,13.05,0,19.54,0
			c0-2.01,0-3.92,0-5.96c-1.33,0-2.56-0.01-3.78,0c-1.03,0.01-1.69-0.45-2-1.45c-0.6-1.96-1.9-3.15-3.98-3.28
			c-1.87-0.11-3.41,1.07-4.18,3.22c-0.4,1.13-1.11,1.56-2.25,1.52C21.19,8.83,20.1,8.86,18.93,8.86z"/>
		<path class="st3" d="M35.94,29.34c-2.7,0-5.4-0.01-8.1,0c-1.09,0-2.12-0.21-2.12-1.52c0-1.29,1-1.54,2.11-1.54
			c5.4,0.01,10.8,0.01,16.2,0.01c1.1,0,2.07,0.26,2.04,1.6c-0.03,1.26-1.01,1.45-2.03,1.45C41.34,29.35,38.64,29.34,35.94,29.34z"/>
		<path class="st3" d="M35.94,53.61c-2.75,0-5.5-0.02-8.25,0.01c-1.1,0.01-1.96-0.33-1.98-1.51c-0.02-1.22,0.91-1.54,1.96-1.54
			c5.45-0.01,10.9-0.01,16.35,0c1.07,0,2.09,0.24,2.04,1.6c-0.05,1.25-0.97,1.46-2.02,1.45C41.35,53.6,38.65,53.61,35.94,53.61z"/>
		<path class="st3" d="M35.94,38.44c2.7,0,5.4,0,8.1,0c1.1,0,2.08,0.24,2.03,1.59c-0.04,1.27-1.02,1.43-2.04,1.43
			c-5.45,0-10.9-0.01-16.35,0c-1.06,0-1.96-0.27-1.96-1.51c0-1.24,0.92-1.51,1.97-1.51C30.44,38.44,33.19,38.44,35.94,38.44z"/>
		<path class="st3" d="M15.95,39.64c1.49-1.41,2.94-2.76,4.37-4.14c0.82-0.79,1.73-1.14,2.58-0.19c0.85,0.93,0.26,1.73-0.5,2.43
			c-1.73,1.62-3.43,3.26-5.16,4.87c-1.14,1.05-1.67,1.04-2.77-0.04c-0.88-0.86-1.74-1.74-2.58-2.64c-0.7-0.74-0.95-1.59-0.13-2.37
			c0.78-0.74,1.56-0.41,2.25,0.25C14.62,38.39,15.24,38.97,15.95,39.64z"/>
		<path class="st3" d="M15.83,51.89c1.55-1.47,2.95-2.78,4.34-4.12c0.82-0.79,1.71-1.4,2.68-0.38c1.01,1.06,0.21,1.88-0.58,2.63
			c-1.64,1.56-3.28,3.13-4.94,4.67c-1.17,1.09-1.78,1.08-2.89,0c-0.88-0.86-1.73-1.74-2.57-2.64c-0.71-0.76-0.9-1.63-0.08-2.37
			c0.78-0.71,1.57-0.39,2.24,0.31C14.58,50.57,15.13,51.15,15.83,51.89z"/>
		<path class="st3" d="M15.84,27.6c1.56-1.48,2.99-2.83,4.42-4.19c0.79-0.75,1.66-1.26,2.58-0.3c0.94,0.98,0.33,1.79-0.46,2.53
			c-1.69,1.58-3.35,3.19-5.05,4.76c-1.23,1.14-1.76,1.11-2.98-0.09c-0.77-0.76-1.52-1.56-2.29-2.32c-0.74-0.74-1.2-1.6-0.37-2.47
			c0.85-0.89,1.71-0.45,2.44,0.31C14.66,26.36,15.18,26.91,15.84,27.6z"/>
	</g>
</g>
</svg>
