<?xml version="1.0" encoding="utf-8"?>
<!-- Generator: Adobe Illustrator 24.0.2, SVG Export Plug-In . SVG Version: 6.00 Build 0)  -->
<svg version="1.1" xmlns="http://www.w3.org/2000/svg" xmlns:xlink="http://www.w3.org/1999/xlink" x="0px" y="0px"
	 viewBox="0 0 57 59" style="enable-background:new 0 0 57 59;" xml:space="preserve">
<style type="text/css">
	.st0{fill:#F4F4F4;}
	.st1{clip-path:url(#SVGID_2_);}
	.st2{opacity:0.67;}
	.st3{fill:#FFDE59;}
	.st4{opacity:0.14;fill:#FFDE59;}
	.st5{fill:#FFFFFF;}
	.st6{opacity:0.5;fill:#FFFFFF;}
	.st7{fill:#4F4F4F;}
	.st8{fill:none;stroke:#FFDE59;stroke-width:3;stroke-miterlimit:10;}
	.st9{fill:none;stroke:#4F4F4F;stroke-width:0.5;stroke-miterlimit:10;}
</style>
<g id="Capa_2">
</g>
<g id="Guias">
	<g>
		<path class="st3" d="M39.2,53.26c-0.61,0-1.1,0-1.59,0c-9.95,0-19.89,0-29.84,0C4.85,53.26,4,52.41,4,49.48C4,36.22,4,22.96,4,9.7
			c0-2.89,0.9-3.79,3.78-3.79c2.4,0,4.79,0,7.36,0c0-0.67-0.05-1.24,0.01-1.8c0.12-1.23,0.79-1.89,2.03-1.9
			c4.81-0.03,9.61-0.03,14.42,0c1.37,0.01,2.03,0.7,2.11,2.08c0.03,0.49,0,0.98,0,1.62c2.48,0,4.87,0,7.27,0
			c3.05,0,3.9,0.86,3.9,3.93c0,2.11,0.02,4.23-0.01,6.34c-0.01,0.73,0.16,1.05,0.97,1.23c5.82,1.29,9.91,6.33,10.16,12.4
			c0.23,5.54-3.61,10.85-9.08,12.6c-1.36,0.43-1.43,0.74-0.6,1.82c0.27,0.35,0.37,0.9,0.38,1.36c0.03,2.69,0.02,5.39,0.01,8.08
			c-0.01,2.53-1.39,4.14-3.57,4.22c-2.12,0.08-3.61-1.4-3.86-3.85C39.25,53.85,39.24,53.65,39.2,53.26z M40.15,42.77
			c-0.32-0.11-0.58-0.22-0.86-0.3c-5.47-1.72-9.06-6.37-9.3-12.06c-0.22-5.25,3.23-10.46,8.15-12.39c0.43-0.17,1.05-0.6,1.07-0.94
			c0.11-1.81,0.05-3.63,0.05-5.49c-1.91,0-3.69,0-5.55,0c0,0.56,0.02,1.01,0,1.47c-0.07,1.47-0.7,2.11-2.17,2.12
			c-4.76,0.02-9.53,0.02-14.29,0c-1.37-0.01-2.02-0.67-2.12-2.05c-0.04-0.52-0.05-1.03-0.07-1.53c-1.9,0-3.65,0-5.4,0
			c0,12.06,0,24.02,0,36c9.89,0,19.71,0,29.27,0C39.37,45.87,39.76,44.32,40.15,42.77z M31.88,29.99
			c-0.02,6.15,4.96,11.19,11.08,11.21c6.12,0.02,11.13-4.98,11.16-11.13c0.03-6.07-5.07-11.18-11.15-11.16
			C36.91,18.94,31.91,23.93,31.88,29.99z M15.06,7.75c-2.54,0-4.94-0.01-7.33,0C6.06,7.76,5.86,7.96,5.86,9.6c0,13.3,0,26.6,0,39.89
			c0,1.8,0.13,1.93,1.89,1.93c10.07,0,20.13,0,30.2,0c0.4,0,0.81,0,1.21,0c0-0.7,0-1.25,0-1.89c-0.6,0-1.09,0-1.58,0
			c-9.11,0-18.23,0-27.34,0c-1.94,0-2.51-0.58-2.53-2.52C7.7,45.76,7.7,44.52,7.7,43.28c0-10.31,0-20.62,0.01-30.94
			c0-2.16,0.56-2.7,2.73-2.7c1.52,0,3.04,0,4.62,0C15.06,8.97,15.06,8.45,15.06,7.75z M31.76,13.28c0-3.06,0-6.05,0-9.12
			c-4.92,0-9.77,0-14.65,0c0,3.09,0,6.08,0,9.12C22.03,13.28,26.85,13.28,31.76,13.28z M41.19,45.92c0,2.87-0.04,5.67,0.02,8.47
			c0.02,1,0.73,1.57,1.73,1.6c1.07,0.03,1.82-0.58,1.85-1.61c0.08-2.8,0.03-5.6,0.03-8.46C43.57,45.92,42.44,45.92,41.19,45.92z
			 M33.78,9.51c0.17,0.06,0.25,0.11,0.32,0.11c1.36,0.01,2.73,0.02,4.09,0.02c2.48,0,2.97,0.5,2.97,2.96c0,1.51,0,3.01,0,4.58
			c0.73-0.05,1.24-0.09,1.81-0.14c0-2.84,0.04-5.53-0.04-8.21c-0.01-0.36-0.6-1-0.94-1.01c-2.71-0.08-5.43-0.05-8.21-0.05
			C33.78,8.41,33.78,8.94,33.78,9.51z M42.19,43.92c0.59,0,1.11,0,1.62,0c0.07-0.11,0.13-0.21,0.2-0.32
			c-0.28-0.19-0.54-0.51-0.83-0.55C42.67,43,41.91,42.81,42.19,43.92z"/>
		<path class="st3" d="M33.78,9.51c0-0.57,0-1.1,0-1.73c2.78,0,5.49-0.04,8.21,0.05c0.34,0.01,0.93,0.65,0.94,1.01
			c0.08,2.68,0.04,5.36,0.04,8.21c-0.56,0.04-1.08,0.08-1.81,0.14c0-1.57,0-3.07,0-4.58c0-2.47-0.49-2.96-2.97-2.96
			c-1.36,0-2.73-0.01-4.09-0.02C34.02,9.62,33.95,9.57,33.78,9.51z"/>
		<path class="st3" d="M22.74,18.29c0.54,0.45,0.95,0.79,1.32,1.1c-0.02,0.15,0,0.27-0.05,0.31c-1.47,1.22-1.59,2.85-1.47,4.59
			c0.08,1.15,0,2.32,0.03,3.48c0.02,0.93-0.35,1.37-1.32,1.35c-2.19-0.03-4.39-0.04-6.58,0c-1.03,0.02-1.39-0.44-1.38-1.42
			c0.03-2.15,0.03-4.3,0-6.46c-0.02-1.01,0.42-1.43,1.42-1.4c1.41,0.03,2.81,0,4.22,0.01C20.4,19.85,21.97,20.16,22.74,18.29z
			 M19.81,21.77c-1.72,0-3.14,0-4.61,0c0,1.85,0,3.61,0,5.4c1.86,0,3.65,0,5.45,0c0-1.11,0-2.12,0-3.32
			c-0.31,0.28-0.5,0.42-0.64,0.6c-2.21,2.64-1.92,2.41-4.32,0.04c-0.08-0.08-0.1-0.21-0.16-0.37c0.36-0.38,0.73-0.77,1.12-1.18
			c0.46,0.38,0.84,0.68,1.28,1.05C18.53,23.27,19.11,22.6,19.81,21.77z"/>
		<path class="st3" d="M42.92,37.56c0,0.58,0,1.1,0,1.61c-4.36,0.53-8.96-3.8-9.19-8.57c-0.25-5.26,4.05-9.89,9.15-9.74
			c0,0.54,0,1.09,0,1.64c-5.31,1.6-7.47,3.92-7.26,7.81C35.83,34.22,38.17,36.58,42.92,37.56z"/>
	</g>
</g>
</svg>
