<?xml version="1.0" encoding="utf-8"?>
<!-- Generator: Adobe Illustrator 24.0.2, SVG Export Plug-In . SVG Version: 6.00 Build 0)  -->
<svg version="1.1" xmlns="http://www.w3.org/2000/svg" xmlns:xlink="http://www.w3.org/1999/xlink" x="0px" y="0px"
	 viewBox="0 0 60 61" style="enable-background:new 0 0 60 61;" xml:space="preserve">
<style type="text/css">
	.st0{opacity:0.67;}
	.st1{fill:#F4F4F4;}
	.st2{fill:#FFDE59;}
	.st3{opacity:0.14;fill:#FFDE59;}
	.st4{fill:#FFFFFF;}
	.st5{opacity:0.5;fill:#FFFFFF;}
	.st6{fill:#4F4F4F;}
	.st7{fill:none;stroke:#FFDE59;stroke-width:3;stroke-miterlimit:10;}
	.st8{fill:none;stroke:#4F4F4F;stroke-width:0.5;stroke-miterlimit:10;}
</style>
<g id="Capa_2">
</g>
<g id="Guias">
	<path class="st6" d="M30,8.38c5.42,0,10.85-0.02,16.27,0.01c3.77,0.01,6.22,2.39,6.23,6.16c0.03,10.85,0.03,21.7,0,32.55
		c-0.01,3.72-2.52,6.19-6.23,6.23c-2.64,0.03-5.27-0.02-7.91,0.02c-0.91,0.01-1.27-0.29-1.27-1.22c0.03-4.46,0.04-8.92,0.02-13.38
		c0-0.96,0.46-1.23,1.31-1.21c1.17,0.02,2.33-0.02,3.5-0.01c1.02,0.01,1.63-0.42,1.75-1.47c0.17-1.51,0.37-3.02,0.53-4.53
		c0.12-1.16-0.47-1.68-1.61-1.67c-1.37,0.01-2.74-0.05-4.11,0.02c-1.08,0.06-1.45-0.38-1.39-1.42c0.06-1.06,0-2.13,0.03-3.19
		c0.05-1.7,0.63-2.4,2.32-2.64c1-0.14,2.02-0.12,3.03-0.11c1.09,0.02,1.59-0.49,1.6-1.55c0-1.22,0.1-2.45-0.05-3.64
		c-0.07-0.52-0.68-1.39-1.02-1.38c-2.81,0.1-5.73-0.03-8.39,0.7c-3.27,0.9-4.61,3.77-4.88,7.03c-0.13,1.61-0.09,3.24-0.06,4.86
		c0.02,0.97-0.35,1.35-1.34,1.33c-3.9-0.1-4.07-0.6-3.96,4.25c0.08,3.4,0.07,3.47,3.47,3.38c1.5-0.04,1.9,0.48,1.87,1.92
		c-0.09,4.05-0.08,8.11-0.03,12.17c0.02,1.26-0.27,1.8-1.68,1.78c-4.71-0.08-9.43-0.01-14.14-0.04c-3.77-0.02-6.22-2.44-6.23-6.17
		c-0.02-10.9-0.02-21.8,0-32.7c0.01-3.72,2.36-6.05,6.11-6.07C19.15,8.36,24.58,8.38,30,8.38C30,8.38,30,8.38,30,8.38z"/>
</g>
</svg>
