<?xml version="1.0" encoding="utf-8"?>
<!-- Generator: Adobe Illustrator 24.0.2, SVG Export Plug-In . SVG Version: 6.00 Build 0)  -->
<svg version="1.1" xmlns="http://www.w3.org/2000/svg" xmlns:xlink="http://www.w3.org/1999/xlink" x="0px" y="0px"
	 viewBox="0 0 68 67" style="enable-background:new 0 0 68 67;" xml:space="preserve">
<style type="text/css">
	.st0{fill:#F4F4F4;}
	.st1{clip-path:url(#SVGID_2_);}
	.st2{opacity:0.67;}
	.st3{fill:#FFDE59;}
	.st4{opacity:0.14;fill:#FFDE59;}
	.st5{fill:#FFFFFF;}
	.st6{opacity:0.5;fill:#FFFFFF;}
	.st7{fill:#4F4F4F;}
	.st8{fill:none;stroke:#FFDE59;stroke-width:3;stroke-miterlimit:10;}
	.st9{fill:none;stroke:#4F4F4F;stroke-width:0.5;stroke-miterlimit:10;}
</style>
<g id="Capa_2">
</g>
<g id="Guias">
	<g>
		<path class="st3" d="M65.02,22.74c-0.15,0.58-0.4,1.58-0.69,2.57c-0.41,1.38-0.25,2.63,0.77,3.71c0.27,0.29,0.5,0.61,0.75,0.92
			c1.8,2.26,1.93,4.44,0.01,6.56c-1.66,1.83-2.02,3.61-1.2,5.94c0.96,2.71,0.13,4.75-2.51,6.02c-2.23,1.08-3.23,2.57-3.33,5.04
			c-0.11,2.78-1.86,4.48-4.66,4.6c-2.32,0.1-3.82,0.98-4.86,3.12c-1.41,2.88-3.32,3.64-6.35,2.63c-2.08-0.69-3.73-0.46-5.43,1.03
			c-2.55,2.22-4.52,2.2-7.11-0.05c-1.66-1.44-3.27-1.68-5.3-1.01c-3.13,1.03-5.02,0.27-6.46-2.68c-0.99-2.02-2.39-2.93-4.61-3.04
			c-3.08-0.15-4.76-1.79-4.9-4.84c-0.11-2.29-1.05-3.69-3.12-4.7c-2.81-1.37-3.64-3.43-2.62-6.37c0.75-2.17,0.4-3.83-1.13-5.54
			c-2.08-2.32-2.06-4.51,0.05-6.88c1.48-1.67,1.83-3.29,1.1-5.41c-1.05-3.07-0.26-5.08,2.66-6.47c2.12-1.01,2.94-2.48,3.06-4.73
			c0.16-2.96,1.85-4.65,4.82-4.77c2.29-0.1,3.71-1.04,4.72-3.1c1.39-2.84,3.34-3.62,6.35-2.64c2.08,0.68,3.73,0.46,5.44-1.03
			c2.53-2.22,4.54-2.2,7.12,0.04c1.66,1.44,3.26,1.69,5.29,1.01c3.12-1.03,5.01-0.28,6.46,2.66c0.99,2,2.35,2.95,4.6,3.04
			c3.07,0.13,4.76,1.79,4.92,4.83c0.11,2.28,0.99,3.77,3.12,4.7C63.79,18.73,64.96,20.17,65.02,22.74z M23.6,4.17
			c-2.03-0.13-2.88,0.93-3.47,2.25c-1.1,2.47-2.95,3.66-5.66,3.77c-2.45,0.1-3.44,1.04-3.54,3.46c-0.11,2.77-1.35,4.6-3.84,5.79
			c-2.28,1.09-2.74,2.16-1.9,4.55c0.92,2.62,0.44,4.76-1.37,6.83c-1.67,1.91-1.66,2.99,0.03,4.94c1.76,2.02,2.25,4.13,1.36,6.7
			c-0.87,2.5-0.43,3.51,1.92,4.67c2.41,1.18,3.66,2.95,3.78,5.67c0.11,2.55,1.02,3.41,3.6,3.55c2.56,0.14,4.34,1.23,5.5,3.56
			c1.31,2.63,2.19,2.98,4.99,2.08c2.33-0.75,4.3-0.42,6.18,1.18c2.38,2.02,3.22,2,5.65-0.03c1.79-1.49,3.65-1.92,5.9-1.2
			c3.08,0.98,3.86,0.66,5.34-2.2c1.11-2.15,2.77-3.21,5.16-3.37c2.92-0.2,3.67-0.91,3.86-3.77c0.16-2.44,1.19-4.15,3.41-5.28
			c2.82-1.43,3.15-2.24,2.18-5.2c-0.73-2.23-0.38-4.1,1.12-5.92c2.12-2.58,2.12-3.28-0.02-5.89c-1.46-1.78-1.81-3.6-1.12-5.78
			c0.98-3.09,0.69-3.84-2.19-5.33c-2.15-1.11-3.21-2.76-3.37-5.15c-0.21-2.96-0.96-3.7-3.92-3.89C50.86,10,49.22,8.99,48.13,6.9
			c-1.55-2.98-2.27-3.28-5.42-2.28c-2.13,0.68-3.93,0.34-5.66-1.05c-2.79-2.24-3.28-2.24-6.11,0.02c-1.68,1.35-3.47,1.77-5.52,1.05
			C24.71,4.39,23.98,4.26,23.6,4.17z"/>
		<path class="st3" d="M33.95,57.94C20.27,57.9,9.31,46.92,9.3,33.27c0-13.65,10.98-24.65,24.65-24.69
			c13.67-0.04,24.83,11.14,24.74,24.77C58.6,47.05,47.59,57.99,33.95,57.94z M33.95,56.12c12.74-0.01,22.97-10.27,22.91-22.97
			C56.81,20.56,46.64,10.43,34.03,10.4c-12.65-0.03-22.88,10.17-22.9,22.83C11.11,45.89,21.32,56.13,33.95,56.12z"/>
		<path class="st3" d="M30.71,36.57c4.5-4.53,8.94-9.01,13.4-13.49c0.7-0.7,1.41-1.38,2.1-2.09c0.6-0.62,1.17-0.62,1.78-0.01
			c0.97,0.98,1.92,1.99,2.95,2.92c0.92,0.84,0.82,1.49-0.04,2.33c-4.32,4.27-8.6,8.57-12.89,12.87c-2.06,2.06-4.15,4.09-6.17,6.19
			c-0.83,0.87-1.46,0.92-2.33,0.04c-4.13-4.18-8.29-8.33-12.46-12.46c-0.82-0.81-0.82-1.46,0.02-2.23c0.91-0.84,1.79-1.7,2.62-2.62
			c0.86-0.95,1.57-0.92,2.46-0.01C24.89,30.82,27.71,33.58,30.71,36.57z M30.62,43.51c6.15-6.15,12.37-12.38,18.46-18.47
			c-0.61-0.68-1.29-1.44-2.31-2.57c-0.51,0.69-0.91,1.39-1.46,1.95c-4.2,4.24-8.43,8.46-12.65,12.68c-2.01,2.01-2.03,2.02-4.08-0.06
			c-2.53-2.55-5.03-5.13-7.53-7.69c-0.94,0.9-1.68,1.61-2.38,2.28C22.7,35.64,26.68,39.6,30.62,43.51z"/>
	</g>
</g>
</svg>
