<?xml version="1.0" encoding="utf-8"?>
<!-- Generator: Adobe Illustrator 24.0.2, SVG Export Plug-In . SVG Version: 6.00 Build 0)  -->
<svg version="1.1" xmlns="http://www.w3.org/2000/svg" xmlns:xlink="http://www.w3.org/1999/xlink" x="0px" y="0px"
	 viewBox="0 0 68 67" style="enable-background:new 0 0 68 67;" xml:space="preserve">
<style type="text/css">
	.st0{fill:#F4F4F4;}
	.st1{clip-path:url(#SVGID_2_);}
	.st2{opacity:0.67;}
	.st3{fill:#FFDE59;}
	.st4{opacity:0.14;fill:#FFDE59;}
	.st5{fill:#FFFFFF;}
	.st6{opacity:0.5;fill:#FFFFFF;}
	.st7{fill:#4F4F4F;}
	.st8{fill:none;stroke:#FFDE59;stroke-width:3;stroke-miterlimit:10;}
	.st9{fill:none;stroke:#4F4F4F;stroke-width:0.5;stroke-miterlimit:10;}
</style>
<g id="Capa_2">
</g>
<g id="Guias">
	<g>
		<path class="st3" d="M23.93,36.46c0.3-0.28,0.55-0.51,0.79-0.74c0.75-0.76,1.91-1.43,2.1-2.31c0.18-0.83-0.67-1.89-1.07-2.84
			C20.52,18.14,27.42,4.58,40.54,1.52c9.01-2.11,18.76,2.41,23.15,10.73c4.39,8.31,2.68,18.75-4.09,25.07
			c-6.86,6.4-16.2,7.65-24.55,3.25c-0.81-0.43-1.35-0.46-1.98,0.27c-0.73,0.83-1.58,1.55-2.4,2.33c0.18,0.37,0.32,0.62,0.43,0.88
			c0.94,2.16-0.46,4.14-2.83,4.11c-0.58-0.01-1.32,0.24-1.72,0.63c-5.2,5.12-10.35,10.3-15.53,15.45c-1.69,1.68-3.71,2.23-5.99,1.46
			c-2.11-0.71-3.36-2.24-3.76-4.41c-0.4-2.13,0.41-3.88,1.9-5.37c4.18-4.16,8.35-8.34,12.52-12.51c0.65-0.65,1.28-1.32,1.96-1.94
			c0.93-0.86,1.57-1.68,1.51-3.17C19.04,36.09,21.4,35.22,23.93,36.46z M64.19,22.12c0.01-10.55-8.48-19.09-19.06-19.16
			c-10.55-0.07-19.28,8.59-19.28,19.13c0,10.52,8.76,19.27,19.25,19.21C55.62,41.24,64.18,32.64,64.19,22.12z M17.82,44.05
			c-4.55,4.53-9.01,8.95-13.44,13.4c-1.68,1.69-1.72,4.05-0.2,5.56C5.73,64.54,8,64.48,9.74,62.8c1.46-1.4,2.88-2.86,4.31-4.28
			c3.04-3.03,6.08-6.05,9.11-9.06C21.33,47.6,19.61,45.85,17.82,44.05z M31.96,39.2c-1.32-1.37-2.59-2.68-3.81-3.95
			c-0.79,0.78-1.77,1.75-2.57,2.54c1.24,1.34,2.48,2.67,3.7,3.99C30.29,40.82,31.25,39.89,31.96,39.2z M21.85,37.51
			c-0.32,0.28-0.76,0.49-0.76,0.7c-0.01,0.42,0.09,0.97,0.37,1.26c2.01,2.09,4.05,4.16,6.16,6.15c0.34,0.32,1.26,0.52,1.56,0.3
			c0.77-0.56,0.2-1.16-0.3-1.66c-1.99-1.98-3.96-3.97-5.95-5.94C22.62,38.03,22.25,37.81,21.85,37.51z M19.24,42.47
			c1.87,1.9,3.58,3.64,5.42,5.52c0.38-0.43,0.76-0.85,1.02-1.15c-1.81-1.81-3.56-3.56-5.28-5.28
			C20.09,41.81,19.68,42.13,19.24,42.47z"/>
		<path class="st3" d="M45.31,39.42c-7.17-0.34-12.44-3.34-15.57-9.45c-3.1-6.04-2.62-12.04,1.15-17.74
			c0.16-0.24,0.29-0.59,0.52-0.68c0.44-0.17,0.93-0.19,1.41-0.28c0.06,0.44,0.29,0.97,0.13,1.31c-0.5,1.04-1.26,1.96-1.73,3.01
			c-2.66,6.02-1.96,11.69,2.36,16.63c4.16,4.76,9.58,6.36,15.64,4.62c6.23-1.79,10.06-6.13,10.99-12.56
			c0.91-6.3-1.43-11.48-6.77-14.98C48.09,5.8,42.51,5.9,36.98,9.06c-0.42,0.24-0.77,0.65-1.22,0.77c-0.48,0.13-1.02,0.02-1.54,0.01
			c0.15-0.53,0.15-1.38,0.48-1.54c2.27-1.13,4.52-2.54,6.95-3.08c9.19-2.04,18.29,4.05,20.3,13.33c1.96,9.03-3.88,18.24-12.96,20.34
			C47.69,39.2,46.33,39.28,45.31,39.42z"/>
		<path class="st3" d="M45.1,23.91c2.27,0,4.54-0.03,6.81,0.01c1.67,0.03,2.95,0.82,3.83,2.23c1.06,1.7,0.96,2.92-0.29,4.49
			c-5.47,6.81-16.24,6.47-21.29-0.67c-0.83-1.17-0.66-2.89,0.49-4.26c0.94-1.13,2.15-1.78,3.64-1.79
			C40.56,23.89,42.83,23.9,45.1,23.91C45.1,23.9,45.1,23.91,45.1,23.91z M45.09,25.77c0,0,0,0.01,0,0.01
			c-2.22,0-4.45-0.03-6.67,0.01c-1.27,0.03-2.19,0.69-2.7,1.86c-0.48,1.09,0.34,1.72,0.95,2.37c4.69,4.96,12.63,4.78,17.09-0.37
			c1.03-1.19,1-2.27-0.31-3.16c-0.63-0.43-1.51-0.66-2.28-0.69C49.15,25.7,47.12,25.77,45.09,25.77z"/>
		<path class="st3" d="M51.68,15.31c-0.01,3.68-2.94,6.62-6.6,6.63c-3.69,0.02-6.76-3.06-6.69-6.72c0.07-3.64,3.11-6.62,6.71-6.59
			C48.75,8.67,51.69,11.65,51.68,15.31z M45.06,10.57c-2.58-0.01-4.71,2.08-4.75,4.65c-0.03,2.64,2.11,4.83,4.73,4.84
			c2.53,0.01,4.72-2.14,4.78-4.67C49.88,12.8,47.69,10.58,45.06,10.57z"/>
	</g>
</g>
</svg>
