<?xml version="1.0" encoding="utf-8"?>
<!-- Generator: Adobe Illustrator 24.0.2, SVG Export Plug-In . SVG Version: 6.00 Build 0)  -->
<svg version="1.1" xmlns="http://www.w3.org/2000/svg" xmlns:xlink="http://www.w3.org/1999/xlink" x="0px" y="0px"
	 viewBox="0 0 128 126" style="enable-background:new 0 0 128 126;" xml:space="preserve">
<style type="text/css">
	.st0{opacity:0.67;}
	.st1{fill:#F4F4F4;}
	.st2{fill:#FFDE59;}
	.st3{opacity:0.14;fill:#FFDE59;}
	.st4{fill:#FFFFFF;}
	.st5{opacity:0.5;fill:#FFFFFF;}
	.st6{fill:#4F4F4F;}
	.st7{fill:none;stroke:#FFDE59;stroke-width:3;stroke-miterlimit:10;}
	.st8{fill:none;stroke:#4F4F4F;stroke-width:0.5;stroke-miterlimit:10;}
</style>
<g id="Capa_2">
</g>
<g id="Guias">
	<g>
		<path class="st2" d="M43.53,49.69c-5.03-1.83-9.56-3.47-14.45-5.25c-0.11,2.3-0.19,3.96-0.28,5.77c-5.96,0-11.84,0-17.9,0
			c0-13.19,0-26.36,0-39.69c5.9,0,11.78,0,17.86,0c0.09,0.99,0.18,2,0.33,3.6c1.72-0.36,3.51-0.34,4.85-1.1
			c3.82-2.17,7.82-2.84,12.15-2.7c5.76,0.19,11.52,0.1,17.28,0.03c5.25-0.07,9.65,1.78,13.31,5.5c1.99,2.03,4.2,3.87,5.98,6.06
			c2.05,2.53,4.45,3.17,7.61,3.1c9.73-0.2,19.47-0.07,29.4-0.07c0,15.7,0,31.31,0,47.09c-25.23,0-50.51,0-76.14,0
			C43.53,64.45,43.53,56.81,43.53,49.69z M55.86,30.23c1.06,1.23,1.9,2.32,2.87,3.3c2.5,2.54,5,5.1,7.62,7.52
			c1.6,1.48,3.68,1.36,5.04,0.01c1.41-1.4,1.45-3.29,0.07-5.05c-0.4-0.51-0.88-0.95-1.34-1.4c-3.8-3.75-7.6-7.49-11.7-11.52
			c1.07-0.93,1.9-1.65,3.06-2.67c2.44,5.1,6.96,4.79,11.47,4.54c0.65-0.04,1.3-0.01,1.95-0.01c1.7,0,3.4,0,5.11,0
			c0.07-0.22,0.14-0.45,0.21-0.67c-1.99-1.9-4.06-3.73-5.96-5.72c-3.05-3.19-6.74-4.59-11.12-4.54c-6.73,0.07-13.47-0.01-20.2,0.04
			c-1.27,0.01-2.6,0.19-3.8,0.6c-3.3,1.15-6.55,2.47-10.12,3.83c0,7.1,0,14.78,0,21.85c2.88,1.2,5.38,2.33,7.95,3.29
			c2,0.74,4.07,1.27,6.44,2c0-3.12,0-5.7-0.01-8.29c0-0.23-0.05-0.57-0.2-0.67c-1.26-0.86-2.57-1.67-3.84-2.52
			c-0.19-0.12-0.29-0.38-0.52-0.7c0.7-0.85,1.4-1.7,2.14-2.59C46,34.9,50.78,34.62,55.86,30.23z M47.26,68.34
			c23.12,0,45.95,0,68.82,0c0-13.33,0-26.44,0-39.56c-15.48,0-30.79,0-46.15,0c1.45,2.81,3.58,3.54,6.48,3.48
			c8.11-0.18,16.23-0.06,24.35-0.06c0.85,0,1.7,0,2.65,0c-0.03,6.4,3.22,9.23,9.02,9.23c0,4.91,0,9.57,0,14.22
			c-6.78,0.85-7.63,1.7-9.24,9.11c-14.41,0-28.81,0-43.19,0c-0.61-6.54-1.7-7.63-9.13-9.25c0-4.66,0-9.32,0-14.1
			c2.84-0.27,5.66-0.37,7.26-2.91c-0.97-1.15-1.85-2.2-2.44-2.9c-3,0.77-5.64,1.45-8.42,2.17C47.26,47.82,47.26,58.02,47.26,68.34z
			 M61.2,41.07c-1.34,0.97-2.35,2.22-3.57,2.48c-3.2,0.68-3.52,2.73-3.2,5.35c0.07,0.56,0.06,1.14,0,1.7
			c-0.13,1.25,0.36,1.82,1.61,2.23c3.35,1.1,5.55,3.46,6.89,6.74c0.3,0.73,1.38,1.62,2.11,1.62c11.11,0.1,22.22,0.1,33.34,0.01
			c0.68-0.01,1.7-0.8,1.98-1.47c1.16-2.83,2.84-5.39,5.71-6.3c2.74-0.87,3.27-2.38,2.94-4.8c-0.09-0.64-0.07-1.3,0-1.94
			c0.14-1.34-0.34-1.96-1.71-2.39c-3.37-1.06-5.73-3.42-6.78-6.78c-0.48-1.54-1.25-1.76-2.62-1.75c-6.57,0.05-13.14,0.02-19.71,0.03
			c-0.71,0-1.42,0.08-2.26,0.13c0,1.93,0,3.69,0,5.4c5.8-2.65,9.72-2.23,12.84,1.45c2.69,3.16,2.93,7.62,0.61,11.06
			c-2.3,3.4-6.65,4.88-10.51,3.56c-2.6-0.89-4.75-2.54-5.46-5.15c-0.66-2.42-0.5-5.05-0.7-7.5C67.99,47.45,64.44,44.89,61.2,41.07z
			 M14.41,14.19c0,10.52-0.01,20.88,0.05,31.25c0,0.43,0.67,1.22,1.05,1.23c3.21,0.1,6.43,0.06,9.65,0.06c0-11.04,0-21.73,0-32.54
			C21.58,14.19,18.14,14.19,14.41,14.19z M76.29,48.69c0.05,2.99,2.55,5.4,5.5,5.32c2.97-0.08,5.4-2.61,5.33-5.53
			c-0.07-2.94-2.63-5.41-5.54-5.35C78.63,43.19,76.24,45.7,76.29,48.69z"/>
		<path class="st2" d="M54.29,95.19c2.52-1.65,4.32-3.44,6.47-4.11c6.73-2.1,13.51-4.15,20.42-5.51c6.53-1.29,13.26-1.84,19.16,2.6
			c0.25,0.19,0.58,0.28,0.88,0.39c0.05,0.02,0.14-0.05,0.44-0.18c0-1.56,0-3.22,0-5.09c6.09,0,11.96,0,18.02,0
			c0,11.93,0,23.89,0,36.02c-5.82,0-11.7,0-17.8,0c-0.11-0.64-0.23-1.38-0.35-2.08c-0.27-0.06-0.47-0.17-0.57-0.11
			c-4.56,2.37-9.45,2.53-14.44,2.41c-5.92-0.14-11.86,0.15-17.77-0.12c-2.41-0.11-5.06-0.72-7.13-1.91
			c-10.6-6.12-21.06-12.5-31.56-18.81c-3.61-2.17-4.94-5.54-3.71-9.07c1.09-3.13,4.26-5.18,7.65-4.7c1.32,0.19,2.63,0.79,3.83,1.42
			C43.56,89.37,49.25,92.47,54.29,95.19z M83.98,99.96c-7.22,1.83-14.25,3.72-21.34,5.33c-2.82,0.64-5.7-1.28-7.13-4.03
			c-0.36-0.69-0.71-1.58-1.33-1.91c-6.45-3.56-12.93-7.09-19.47-10.49c-1.87-0.98-3.92-0.12-4.76,1.6c-0.95,1.93-0.2,3.78,2.18,5.21
			c10.43,6.26,20.83,12.55,31.33,18.69c1.52,0.89,3.49,1.37,5.26,1.41c6.65,0.16,13.31-0.12,19.95,0.13
			c4.12,0.15,7.89-0.71,11.47-2.51c0.72-0.36,1.48-1.48,1.5-2.26c0.12-5.43,0.07-10.87,0-16.3c-0.01-0.66-0.2-1.64-0.65-1.91
			c-3.5-2.09-6.72-4.49-11.29-4.45c-10.12,0.09-19.27,4.11-28.85,6.37c-1.9,0.45-2.77,2.21-2.26,4.27c0.47,1.9,2.19,2.94,4.35,2.46
			c3.08-0.68,6.12-1.55,9.18-2.34c3.58-0.93,7.15-1.88,10.87-2.86C83.36,97.66,83.62,98.65,83.98,99.96z M116.06,115.67
			c0-9.59,0-19.11,0-28.7c-3.55,0-7.06,0-10.65,0c0,9.64,0,19.09,0,28.7C108.98,115.67,112.42,115.67,116.06,115.67z"/>
	</g>
</g>
</svg>
