<?xml version="1.0" encoding="utf-8"?>
<!-- Generator: Adobe Illustrator 24.0.2, SVG Export Plug-In . SVG Version: 6.00 Build 0)  -->
<svg version="1.1" xmlns="http://www.w3.org/2000/svg" xmlns:xlink="http://www.w3.org/1999/xlink" x="0px" y="0px"
	 viewBox="0 0 128 126" style="enable-background:new 0 0 128 126;" xml:space="preserve">
<style type="text/css">
	.st0{opacity:0.67;}
	.st1{fill:#F4F4F4;}
	.st2{fill:#FFDE59;}
	.st3{opacity:0.14;fill:#FFDE59;}
	.st4{fill:#FFFFFF;}
	.st5{opacity:0.5;fill:#FFFFFF;}
	.st6{fill:#4F4F4F;}
	.st7{fill:none;stroke:#FFDE59;stroke-width:3;stroke-miterlimit:10;}
	.st8{fill:none;stroke:#4F4F4F;stroke-width:0.5;stroke-miterlimit:10;}
</style>
<g id="Capa_2">
</g>
<g id="Guias">
	<g>
		<path class="st2" d="M71.49,118.07c-13.42,0-26.84,0-40.25,0c-8.4,0-12.09-3.65-12.1-11.95c-0.01-5.51,1.06-11.33-0.36-16.45
			c-1.49-5.4-5.37-10.14-8.21-15.17c-1.44-2.55-2.93-5.08-4.36-7.64c-3.61-6.45-2.28-11.62,4.09-15.35
			c19.7-11.53,39.44-23,59.16-34.5c3.76-2.19,7.49-4.42,11.27-6.58c6.18-3.53,11.54-2.09,15.11,4.1
			c5.06,8.78,10.09,17.57,15.06,26.4c0.9,1.6,1.85,2.48,3.84,2.63c5.07,0.37,8.88,4.48,8.9,9.59c0.06,18.31,0.07,36.63,0,54.94
			c-0.02,6-4.37,9.94-10.82,9.97c-10.93,0.04-21.86,0.01-32.79,0.01C77.18,118.07,74.33,118.07,71.49,118.07z M71.4,113.04
			c13.67,0,27.35,0.01,41.02-0.01c4.47-0.01,6.28-1.82,6.29-6.32c0.02-17.32,0.02-34.64,0-51.96c-0.01-4.56-1.9-6.4-6.52-6.4
			c-27.17-0.01-54.34-0.01-81.52,0c-4.72,0-6.55,1.86-6.55,6.64c-0.01,17.15-0.01,34.29,0,51.44c0,4.87,1.72,6.6,6.53,6.6
			C44.23,113.05,57.81,113.04,71.4,113.04z M90.61,16.15c-1.87-2.92-3.95-3.34-7.28-1.41c-15.66,9.08-31.29,18.19-46.93,27.3
			c-0.44,0.26-0.79,0.69-1.2,1.05c5.63,1.09,10.39-0.26,15.01-3.3c5.55-3.65,11.47-6.75,17.21-10.1
			C75.16,25.19,82.88,20.67,90.61,16.15z M98.32,28.95c-8.1,4.71-15.92,9.26-24.38,14.18c11.25,0,21.68,0,32.5,0
			C103.65,38.27,101.06,33.75,98.32,28.95z M54.95,42.71c4.68,0.68,9.09,1.12,13.25-1.88c4-2.89,8.52-5.08,12.81-7.58
			c4.89-2.85,9.77-5.71,14.79-8.64c-0.83-1.46-1.55-2.75-2.42-4.28C80.46,27.85,67.71,35.28,54.95,42.71z M18.8,52.28
			c-2.58,1.56-5.14,2.92-7.49,4.59c-2.18,1.54-2.45,3.55-1.12,6.08c1.6-0.91,3.12-2.01,4.81-2.69
			C18.55,58.84,20.09,56.51,18.8,52.28z M14.75,71.73c4.81-2.59,4.81-2.59,4.12-7.98c-2.18,1.27-4.25,2.49-6.48,3.8
			C13.25,69.06,13.96,70.33,14.75,71.73z"/>
		<path class="st2" d="M94.56,96.54c0.01,5.66-5.48,9.67-11.24,8.3c-1.04-0.25-2.24-0.24-3.28,0c-3.8,0.87-7.63-0.45-9.76-3.53
			c-2-2.87-2-6.64,0-9.5c2.14-3.08,5.96-4.41,9.76-3.57c1.05,0.23,2.24,0.25,3.28,0C89.06,86.87,94.55,90.88,94.56,96.54z
			 M85.26,100.77c2.36,0.04,4.12-0.85,4.6-2.76c0.32-1.27-0.08-3.07-0.83-4.18c-1.19-1.75-3.14-1.78-5.18-1.19
			c-1.21,0.35-2.68,0.59-3.81,0.21c-2.58-0.86-4.55-0.66-6.01,1.22c-1.23,1.59-1.27,3.24-0.07,4.86c1.41,1.9,3.43,2.19,5.98,1.33
			c1.09-0.37,2.43-0.09,3.64,0.01C84.25,100.33,84.89,100.65,85.26,100.77z"/>
		<path class="st2" d="M47.51,100.81c4.22,0,8.44,0,12.65,0c0.54,0,1.07-0.01,1.61,0.01c1.46,0.07,2.65,0.63,2.61,2.27
			c-0.04,1.5-1.18,2.03-2.56,2.06c-0.46,0.01-0.92,0.01-1.38,0.01c-8.82,0-17.64,0-26.46,0c-0.54,0-1.21,0.19-1.58-0.06
			c-0.85-0.57-1.55-1.37-2.31-2.07c0.74-0.73,1.41-1.57,2.26-2.13c0.43-0.29,1.19-0.08,1.81-0.08
			C38.61,100.81,43.06,100.81,47.51,100.81z"/>
		<path class="st2" d="M42.83,92.24c-3.23,0-6.45,0-9.68,0c-1.48,0-2.96-0.22-3.02-2.05c-0.07-1.98,1.47-2.29,3.04-2.29
			c6.53-0.01,13.06-0.01,19.6,0c1.57,0,3.11,0.32,3.02,2.3c-0.08,1.83-1.57,2.03-3.04,2.03C49.44,92.24,46.14,92.24,42.83,92.24z"/>
	</g>
</g>
</svg>
