<?xml version="1.0" encoding="utf-8"?>
<!-- Generator: Adobe Illustrator 24.0.2, SVG Export Plug-In . SVG Version: 6.00 Build 0)  -->
<svg version="1.1" xmlns="http://www.w3.org/2000/svg" xmlns:xlink="http://www.w3.org/1999/xlink" x="0px" y="0px"
	 viewBox="0 0 60 61" style="enable-background:new 0 0 60 61;" xml:space="preserve">
<style type="text/css">
	.st0{opacity:0.67;}
	.st1{fill:#F4F4F4;}
	.st2{fill:#FFDE59;}
	.st3{opacity:0.14;fill:#FFDE59;}
	.st4{fill:#FFFFFF;}
	.st5{opacity:0.5;fill:#FFFFFF;}
	.st6{fill:#4F4F4F;}
	.st7{fill:none;stroke:#FFDE59;stroke-width:3;stroke-miterlimit:10;}
	.st8{fill:none;stroke:#4F4F4F;stroke-width:0.5;stroke-miterlimit:10;}
</style>
<g id="Capa_2">
</g>
<g id="Guias">
	<path class="st6" d="M51.74,10.57c-0.68-2.11-2.29-2.48-4.26-2.47C35.29,8.14,23.09,8.12,10.9,8.12c-2.65,0-3.76,1.11-3.76,3.77
		c0,12.3,0.01,24.6-0.01,36.9c0,1.85,0.45,3.29,2.42,3.86c0.14,0.04,0.23,0.23,0.35,0.35c13.03,0,26.07,0,39.1,0
		c0.21-0.15,0.39-0.36,0.62-0.44c0.96-0.35,1.62-0.96,1.95-1.94c0.08-0.23,0.29-0.42,0.44-0.63c0-13.04,0-26.08,0-39.12
		C51.91,10.77,51.78,10.69,51.74,10.57z M20.39,45.81c0,0.13-0.05,0.26-0.11,0.53c-2.05,0-4.12,0.03-6.18-0.04
		c-0.21-0.01-0.55-0.6-0.57-0.93c-0.06-1.57-0.03-3.14-0.03-4.71c0-4.88,0-9.76,0-14.64c0-1.34,0.01-1.35,1.33-1.35
		c1.57,0,3.14,0.01,4.71,0c0.56,0,0.86,0.14,0.86,0.79C20.39,32.24,20.39,39.03,20.39,45.81z M17.03,21.98
		c-2.27,0.01-3.98-1.69-3.99-3.94c0-2.22,1.77-4.01,3.97-4.01c2.16,0,3.98,1.85,3.97,4.04C20.98,20.22,19.2,21.97,17.03,21.98z
		 M44.41,46.38c-1.64-0.03-3.27-0.03-4.91,0c-0.76,0.01-1.04-0.23-1.03-1.04c0.05-3.37,0.04-6.75,0.01-10.13
		c-0.01-0.86-0.07-1.74-0.26-2.58c-0.4-1.69-1.68-2.55-3.4-2.44c-1.84,0.13-3.3,1.38-3.38,3.2c-0.15,3.53-0.17,7.07-0.21,10.61
		c-0.03,2.35,0,2.36-2.4,2.36c-1.1,0-2.21-0.04-3.31,0.01c-0.92,0.05-1.21-0.3-1.21-1.21c0.03-5.88,0.01-11.76,0.01-17.64
		c0-2.85,0-2.85,2.83-2.85c0.94,0,1.87,0.04,2.81-0.01c0.8-0.04,1.1,0.27,1.03,1.05c-0.04,0.46-0.01,0.93-0.01,1.67
		c1.29-1.71,2.79-2.72,4.67-3.03c5.54-0.91,9.23,1.68,9.55,7.22c0.26,4.56,0.15,9.15,0.23,13.72C45.44,46.06,45.2,46.39,44.41,46.38
		z"/>
</g>
</svg>
