<?xml version="1.0" encoding="utf-8"?>
<!-- Generator: Adobe Illustrator 24.0.2, SVG Export Plug-In . SVG Version: 6.00 Build 0)  -->
<svg version="1.1" xmlns="http://www.w3.org/2000/svg" xmlns:xlink="http://www.w3.org/1999/xlink" x="0px" y="0px"
	 viewBox="0 0 128 126" style="enable-background:new 0 0 128 126;" xml:space="preserve">
<style type="text/css">
	.st0{opacity:0.67;}
	.st1{fill:#F4F4F4;}
	.st2{fill:#FFDE59;}
	.st3{opacity:0.14;fill:#FFDE59;}
	.st4{fill:#FFFFFF;}
	.st5{opacity:0.5;fill:#FFFFFF;}
	.st6{fill:#4F4F4F;}
	.st7{fill:none;stroke:#FFDE59;stroke-width:3;stroke-miterlimit:10;}
	.st8{fill:none;stroke:#4F4F4F;stroke-width:0.5;stroke-miterlimit:10;}
</style>
<g id="Capa_2">
</g>
<g id="Guias">
	<g>
		<path class="st2" d="M78.5,105.73c-0.93,5.72-5.48,8.78-11.32,5.69c-5.85,6.55-10.6,6.33-13.89-0.65
			c-5.55-0.26-6.69-0.96-8.78-5.44c-5.43-0.16-6.82-1.03-8.77-5.45c-7.05,0.69-11.04-5.08-7.25-11.53c-1.96-1.11-3.92-2.21-6.1-3.45
			c-0.77,1.89-1.51,3.58-2.16,5.32c-0.55,1.47-1.36,2.12-3,1.5c-2.99-1.13-6.07-2.04-9.01-3.27c-0.71-0.3-1.06-1.48-1.57-2.25
			c0.9-0.23,1.91-0.85,2.68-0.63c2.67,0.73,5.27,1.76,8.16,2.76c4.79-12.22,9.54-24.32,14.37-36.64c-3.56-1.43-6.97-2.81-10.37-4.18
			c-4.34-1.74-8.72-3.4-13-5.27c-0.81-0.35-1.86-1.67-1.73-2.32c0.31-1.49,1.61-1.16,2.79-0.68c7.99,3.21,15.98,6.44,24.02,9.53
			c2.29,0.88,2.13,2.31,1.38,4.08c4.61,1.36,8.98,2.17,13.27-0.72c6.46-4.35,13.61-4.55,21-3.28c2.27,0.39,4.61,0.39,7.41,0.6
			c-0.53-0.89-0.64-1.19-0.84-1.42c-2.9-3.31-2.91-3.31,0.38-6.39c12.16-11.4,24.32-22.8,36.49-34.19c0.48-0.45,0.93-1.05,1.51-1.23
			c0.59-0.18,1.56-0.18,1.92,0.18c0.36,0.37,0.39,1.36,0.16,1.91c-0.26,0.63-0.96,1.09-1.5,1.59
			c-12.04,11.29-24.07,22.58-36.12,33.87c-0.36,0.34-0.76,0.62-0.79,0.64c9.77,10.14,19.42,20.16,29.28,30.4
			c2.18-2.02,4.02-3.73,5.87-5.43c0.9-0.83,1.88-2.01,3.12-0.8c1.29,1.26,0.1,2.19-0.81,3.04c-1.97,1.86-4.01,3.65-5.9,5.58
			c-1.51,1.54-2.8,1.45-4.12-0.14c-0.73-0.88-1.44-1.78-2.02-2.49c-1.65,1.42-2.89,2.48-4.26,3.66c3.36,2.31,5.36,5,3.94,8.89
			c-1.26,3.47-4.03,4.77-7.57,4.49c-1.85,5.75-3.37,7.02-8.45,7.1C85.36,104.16,83.66,105.61,78.5,105.73z M23.54,81.8
			c2.38,1.33,4.51,2.52,6.79,3.8c2.26-3.64,4.4-7.23,6.69-10.72c1.8-2.75,4.8-3.81,7.72-2.97c2.83,0.82,4.63,3.41,4.69,6.77
			c0.01,0.39,0.06,0.78,0.1,1.3c5.19,0.37,7.03,3.62,7.07,7.59c2.11,1.31,4.19,2.03,5.35,3.49c1.17,1.47,1.43,3.67,2.14,5.68
			c5.99,1.09,7.58,4.67,4.96,11.69c2.3,1.37,4.17,1.16,5.34-0.6c1.18-1.77,0.59-3.76-1.56-5.23c-0.2-0.14-0.43-0.24-0.63-0.38
			c-0.99-0.68-2.48-1.29-1.56-2.81c1.01-1.66,2.27-0.53,3.38,0.12c1.28,0.74,2.5,1.59,3.8,2.28c2.04,1.08,3.92,0.65,4.98-1.02
			c1.05-1.66,0.61-3.63-1.25-4.92c-1.61-1.13-3.43-1.97-4.96-3.19c-0.7-0.56-0.91-1.74-1.34-2.64c1-0.02,2.2-0.39,2.98,0.02
			c2.61,1.37,5.05,3.06,7.6,4.55c2.28,1.33,4.26,0.96,5.37-0.88c1.08-1.79,0.46-3.75-1.77-5.17c-2.7-1.72-5.45-3.35-8.16-5.05
			c-1.03-0.64-2.44-1.27-1.5-2.81c0.93-1.53,2.14-0.61,3.19,0.02c3.64,2.22,7.24,4.52,10.92,6.68c0.94,0.55,2.3,1.19,3.16,0.89
			c1.14-0.4,2.69-1.6,2.78-2.58c0.12-1.27-0.67-3.15-1.7-3.89c-3.39-2.43-7.09-4.44-10.64-6.65c-1.02-0.64-2.48-1.4-1.29-2.78
			c0.42-0.49,2.11-0.38,2.92,0.04c2.44,1.27,4.74,2.82,7.14,4.28c1.47-1.56,2.74-2.92,3.62-3.86c-7.07-7.37-13.98-14.56-20.27-21.11
			c-2.43,0.36-4.12,0.88-5.78,0.79c-4.59-0.25-9.16-0.8-13.74-1.14c-1.02-0.08-2.17-0.05-3.09,0.34c-4.52,1.95-8.99,4.01-13.45,6.1
			c-2.37,1.11-3.22,3.04-2.33,4.95c0.89,1.9,2.9,2.52,5.26,1.5c2.78-1.21,5.49-2.6,8.32-3.68c0.72-0.27,1.79,0.35,2.69,0.56
			c-0.44,0.77-0.69,1.9-1.35,2.24c-3,1.52-6.07,2.9-9.19,4.16c-2.77,1.12-5.38,0.57-7.45-1.61c-2-2.1-2.34-4.62-1.28-7.32
			c0.18-0.45,0.41-0.88,0.7-1.51c-1.78-0.34-3.44-0.66-5.29-1.01C30.26,64.64,26.95,73.1,23.54,81.8z M46.61,78.06
			c-0.88-0.94-1.64-2.25-2.78-2.85c-1.71-0.91-3.21,0.06-4.17,1.57c-2.86,4.5-5.66,9.03-8.44,13.58c-1.46,2.39-1.2,4.45,0.6,5.63
			c1.93,1.26,3.9,0.59,5.49-1.96c2.65-4.24,5.27-8.51,7.85-12.79C45.67,80.41,45.97,79.47,46.61,78.06z M43.05,101.97
			c0.37-0.2,1.51-0.46,1.96-1.16c2.73-4.18,5.41-8.4,7.89-12.73c0.9-1.58,0.23-3.27-1.35-4.27c-1.61-1.01-3.39-0.77-4.4,0.75
			c-2.75,4.17-5.41,8.41-7.81,12.78C38.18,99.47,40.04,101.94,43.05,101.97z M51.94,107.38c0.42-0.25,1.6-0.56,2.12-1.33
			c2.05-3.05,4.04-6.18,5.76-9.42c0.87-1.64,0.43-3.45-1.33-4.49c-1.64-0.97-3.38-0.67-4.39,0.84c-2.15,3.18-4.22,6.45-5.98,9.85
			C47.01,104.97,48.9,107.39,51.94,107.38z M67.56,103.16c-0.78-0.92-1.41-2.36-2.4-2.67c-1.1-0.35-3.08-0.14-3.71,0.63
			c-1.81,2.18-3.36,4.67-4.52,7.25c-0.41,0.9,0.28,2.83,1.11,3.59c0.74,0.68,2.79,1,3.53,0.46
			C64.56,110.26,65.99,106.92,67.56,103.16z"/>
		<path class="st2" d="M82.72,68.89c0.06,1.88-1.27,2.49-2.84,1.56c-3.45-2.03-6.76-4.31-10.28-6.21c-2.4-1.29-5.08-2.04-7.56-3.2
			c-0.8-0.37-1.36-1.25-2.02-1.89c0.82-0.41,1.76-1.32,2.44-1.15c2.41,0.58,4.9,1.23,7.07,2.39c3.95,2.13,7.71,4.62,11.52,7.01
			C81.75,67.85,82.31,68.52,82.72,68.89z"/>
	</g>
</g>
</svg>
