<?xml version="1.0" encoding="utf-8"?>
<!-- Generator: Adobe Illustrator 24.0.2, SVG Export Plug-In . SVG Version: 6.00 Build 0)  -->
<svg version="1.1" xmlns="http://www.w3.org/2000/svg" xmlns:xlink="http://www.w3.org/1999/xlink" x="0px" y="0px"
	 viewBox="0 0 68 71" style="enable-background:new 0 0 68 71;" xml:space="preserve">
<style type="text/css">
	.st0{fill:#F4F4F4;}
	.st1{clip-path:url(#SVGID_2_);}
	.st2{opacity:0.67;}
	.st3{fill:#FFDE59;}
	.st4{opacity:0.14;fill:#FFDE59;}
	.st5{fill:#FFFFFF;}
	.st6{opacity:0.5;fill:#FFFFFF;}
	.st7{fill:#4F4F4F;}
	.st8{fill:none;stroke:#FFDE59;stroke-width:3;stroke-miterlimit:10;}
	.st9{fill:none;stroke:#4F4F4F;stroke-width:0.5;stroke-miterlimit:10;}
</style>
<g id="Capa_2">
</g>
<g id="Guias">
	<g>
		<path class="st3" d="M64.92,16.59c-2.49,0-4.88,0.01-7.27,0c-3-0.02-4.49-1.5-4.53-4.51c-0.03-2.38-0.01-4.77-0.01-7.36
			c-0.67,0-1.2,0-1.73,0c-11.56,0-23.13,0-34.69,0c-2.28,0-2.67,0.48-2.24,2.87c1.01-0.08,2.04-0.17,3.06-0.23
			c1.08-0.07,1.71,0.37,1.71,1.54c-0.01,5.13-0.01,10.27,0,15.4c0,1.14-0.58,1.63-1.67,1.63c-5.08,0-10.17,0-15.25,0
			c-1.19,0-1.72-0.61-1.64-1.79c0.43-6.7,3.53-11.73,9.5-14.86c1.14-0.6,1.56-1.19,1.53-2.48c-0.09-3.28,1.42-4.71,4.71-4.72
			c12.31,0,24.62,0.01,36.93-0.02c1.14,0,1.96,0.32,2.76,1.14c3.48,3.56,7.06,7.03,10.52,10.6c0.55,0.57,0.99,1.53,0.99,2.32
			c0.06,16.15,0.05,32.3,0.04,48.45c0,3.01-1.51,4.52-4.5,4.53c-15.65,0.01-31.3,0.01-46.95,0c-3.03,0-4.53-1.48-4.54-4.47
			c-0.02-3.24-0.01-6.48,0-9.72c0-1.01-0.11-2.23,1.33-2.19c1.41,0.04,1.26,1.28,1.27,2.27c0.01,3.09-0.01,6.18,0.01,9.27
			c0.01,1.9,0.29,2.18,2.16,2.18c15.5,0,31,0,46.5,0.01c1.28,0,2.09-0.26,2.09-1.79c-0.03-15.75-0.02-31.5-0.02-47.25
			C65.01,17.21,64.97,17.02,64.92,16.59z M16.62,10.19c-6.84,0.12-13.2,6.93-13.04,13c4.3,0,8.6,0,13.04,0c0-3.72,0-7.34,0-10.96
			C16.62,11.59,16.62,10.95,16.62,10.19z M62.38,13.98c-2.17-2.26-4.41-4.61-6.63-6.93c0,1.7-0.01,3.48,0,5.27
			c0.01,0.98,0.45,1.64,1.5,1.65C59.06,14,60.88,13.98,62.38,13.98z"/>
		<path class="st3" d="M21.32,28.01c0-4.47,0-8.75,0-13.03c0-2.98,0.3-3.24,3.33-2.83c8.4,1.13,14.84,7.88,15.21,15.93
			c0.4,8.86-5.04,16.13-13.56,18.09c-10.22,2.35-20.51-5.5-20.88-15.94c-0.07-1.93,0.17-2.21,2.07-2.21
			C12.01,28,16.54,28.01,21.32,28.01z M8.23,30.59c-0.23,5.27,4.62,11.14,10.41,12.79c6.52,1.85,13.43-1,16.77-6.91
			c3-5.31,2.27-12.8-1.69-16.43c-3.01,3.03-6.06,6.02-9.03,9.1c-1.01,1.05-2.06,1.51-3.53,1.48C16.89,30.53,12.61,30.59,8.23,30.59z
			 M31.91,18c-2.28-1.87-4.85-2.99-7.81-3.24c0,3.71,0,7.35,0,10.99C26.73,23.14,29.3,20.59,31.91,18z"/>
		<path class="st3" d="M38.4,50.6c0.31,0.55,0.55,1.15,0.95,1.62c0.57,0.69,1.39,1.2,1.85,1.95c1.3,2.14,3.43,1.92,5.43,2.05
			c0.31,0.02,0.7-0.32,0.97-0.58c2.02-1.99,4.08-3.96,6-6.06c0.43-0.47,0.51-1.4,0.52-2.12c0.03-2.02,1.33-3.66,3.32-4.01
			c1.81-0.32,3.73,0.88,4.31,2.7c0.61,1.9-0.25,3.95-2.11,4.71c-0.7,0.28-1.6,0.43-2.31,0.26c-0.97-0.24-1.53,0.02-2.17,0.69
			c-1.82,1.91-3.75,3.72-5.55,5.65c-0.39,0.41-0.61,1.19-0.56,1.76c0.15,1.64-0.31,2.96-1.65,3.91c-1.3,0.92-2.71,0.99-4.09,0.24
			c-1.44-0.79-2.27-2.1-1.96-3.71c0.25-1.29-0.19-2.06-1.09-2.78c-0.27-0.22-0.56-0.45-0.73-0.75c-1.42-2.46-3.81-2.48-6.2-2.53
			c-0.05,0-0.12-0.02-0.14,0c-0.98,0.91-2,1.78-2.93,2.74c-0.88,0.91-2.1,1.52-1.67,3.3c0.5,2.11-1.4,4.09-3.62,4.2
			c-2.27,0.11-4.19-1.74-4.12-3.98c0.06-2.24,2.14-4.19,4.29-3.77c1.18,0.23,1.87-0.12,2.56-0.92c0.52-0.6,1.12-1.14,1.68-1.7
			c1-0.99,1.97-1.75,1.64-3.6c-0.39-2.11,1.83-3.92,4.02-3.81C37.25,46.16,38.82,48.04,38.4,50.6z M45.03,58.04
			c-0.55,0.97-1.12,1.52-1.07,2.01c0.05,0.42,0.82,1.08,1.24,1.06c0.43-0.03,1.13-0.76,1.12-1.19
			C46.32,59.43,45.69,58.94,45.03,58.04z M24.73,58.1c-0.6,0.83-1.27,1.37-1.19,1.75c0.1,0.51,0.78,0.91,1.22,1.36
			c0.42-0.41,1.17-0.82,1.19-1.24C25.95,59.48,25.32,58.96,24.73,58.1z M57.98,45.43c-0.6,0.95-1.2,1.48-1.17,1.96
			c0.03,0.42,0.77,1.11,1.2,1.1c0.43-0.01,1.16-0.7,1.18-1.13C59.22,46.88,58.61,46.37,57.98,45.43z M36.57,49.92
			c-0.83-0.58-1.32-1.18-1.75-1.15c-0.46,0.04-0.85,0.7-1.28,1.09c0.43,0.44,0.81,1.12,1.31,1.23
			C35.22,51.18,35.75,50.51,36.57,49.92z"/>
		<path class="st3" d="M52.46,22.87c-2.44,0-4.88-0.01-7.33,0c-0.92,0-1.8-0.15-1.83-1.27c-0.02-1.11,0.82-1.34,1.76-1.34
			c4.98,0.01,9.97,0,14.95,0c0.94,0,1.78,0.23,1.75,1.35c-0.03,1.13-0.92,1.26-1.83,1.25C57.44,22.87,54.95,22.87,52.46,22.87z"/>
		<path class="st3" d="M52.52,29.15c-2.49,0-4.98,0-7.48,0c-0.94,0-1.77-0.23-1.73-1.35c0.03-1.02,0.82-1.25,1.7-1.25
			c5.03,0,10.07,0,15.1,0c0.89,0,1.65,0.26,1.66,1.29c0.01,1.03-0.72,1.31-1.62,1.31C57.6,29.15,55.06,29.15,52.52,29.15z"/>
		<path class="st3" d="M47.98,35.43c-1.05,0-2.12,0.14-3.12-0.05c-0.58-0.11-1.06-0.77-1.58-1.19c0.49-0.45,0.96-1.25,1.47-1.28
			c2.18-0.14,4.38-0.13,6.56,0c0.49,0.03,1.23,0.7,1.34,1.2c0.21,0.9-0.54,1.3-1.39,1.32C50.17,35.45,49.08,35.43,47.98,35.43
			C47.98,35.43,47.98,35.43,47.98,35.43z"/>
		<path class="st3" d="M59.26,34.16c-0.86,0.59-1.4,1.23-1.79,1.15c-0.5-0.1-0.89-0.78-1.33-1.2c0.41-0.41,0.81-1.14,1.23-1.15
			C57.87,32.95,58.38,33.56,59.26,34.16z"/>
		<path class="st3" d="M12.91,47.36c0.62,0.84,1.29,1.35,1.22,1.75c-0.08,0.51-0.75,0.92-1.17,1.38c-0.42-0.4-1.15-0.79-1.17-1.22
			C11.76,48.77,12.36,48.24,12.91,47.36z"/>
	</g>
</g>
</svg>
