<?xml version="1.0" encoding="utf-8"?>
<!-- Generator: Adobe Illustrator 24.0.2, SVG Export Plug-In . SVG Version: 6.00 Build 0)  -->
<svg version="1.1" xmlns="http://www.w3.org/2000/svg" xmlns:xlink="http://www.w3.org/1999/xlink" x="0px" y="0px"
	 viewBox="0 0 62 71" style="enable-background:new 0 0 62 71;" xml:space="preserve">
<style type="text/css">
	.st0{fill:#F4F4F4;}
	.st1{clip-path:url(#SVGID_2_);}
	.st2{opacity:0.67;}
	.st3{fill:#FFDE59;}
	.st4{opacity:0.14;fill:#FFDE59;}
	.st5{fill:#FFFFFF;}
	.st6{opacity:0.5;fill:#FFFFFF;}
	.st7{fill:#4F4F4F;}
	.st8{fill:none;stroke:#FFDE59;stroke-width:3;stroke-miterlimit:10;}
	.st9{fill:none;stroke:#4F4F4F;stroke-width:0.5;stroke-miterlimit:10;}
</style>
<g id="Capa_2">
</g>
<g id="Guias">
	<path class="st3" d="M4.5,68.35c-1.67,0-3.19,0-4.95,0C0.34,54.1,7.32,44.4,20.48,38.83c-5.27-4.1-8.01-9.39-7.62-16.05
		c0.29-4.85,2.35-8.93,5.94-12.21c6.96-6.35,17.88-6.15,24.65,0.53c3.99,3.94,5.82,8.77,5.36,14.39c-0.45,5.55-3.14,9.89-7.56,13.33
		c13.1,5.56,20.1,15.24,20.92,29.48c-1.68,0-3.23,0-4.94,0c-0.3-8.79-3.89-15.98-11.05-21.26c-4.56-3.36-9.74-4.96-15.39-4.95
		c-4.69,0-9.1,1.17-13.16,3.56c-4.01,2.36-7.19,5.55-9.55,9.55C5.7,59.25,4.61,63.66,4.5,68.35z M30.79,10.84
		c-7.29,0.06-13.15,6.01-13.08,13.29c0.06,7.2,6,13.07,13.21,13.04c7.25-0.03,13.13-6.01,13.08-13.3
		C43.94,16.67,37.97,10.78,30.79,10.84z"/>
</g>
</svg>
