<?xml version="1.0" encoding="utf-8"?>
<!-- Generator: Adobe Illustrator 24.0.2, SVG Export Plug-In . SVG Version: 6.00 Build 0)  -->
<svg version="1.1" xmlns="http://www.w3.org/2000/svg" xmlns:xlink="http://www.w3.org/1999/xlink" x="0px" y="0px"
	 viewBox="0 0 68 71" style="enable-background:new 0 0 68 71;" xml:space="preserve">
<style type="text/css">
	.st0{fill:#F4F4F4;}
	.st1{clip-path:url(#SVGID_2_);}
	.st2{opacity:0.67;}
	.st3{fill:#FFDE59;}
	.st4{opacity:0.14;fill:#FFDE59;}
	.st5{fill:#FFFFFF;}
	.st6{opacity:0.5;fill:#FFFFFF;}
	.st7{fill:#4F4F4F;}
	.st8{fill:none;stroke:#FFDE59;stroke-width:3;stroke-miterlimit:10;}
	.st9{fill:none;stroke:#4F4F4F;stroke-width:0.5;stroke-miterlimit:10;}
</style>
<g id="Capa_2">
</g>
<g id="Guias">
	<g>
		<path class="st3" d="M49.48,13.97c1.33-0.84,1.91-1.7,1.46-3.38c-0.54-1.98,0.81-3.92,2.7-4.63c1.91-0.72,4.07,0.02,5.23,1.81
			c0.24,0.36,0.41,0.76,0.66,1.22c2.12,0,4.26,0,6.47,0c0,0.7,0,1.31,0,2.08c-1.82,0-3.61,0.02-5.4-0.01
			c-0.73-0.01-1.19,0.11-1.58,0.88c-1.07,2.08-3.01,2.84-5.3,2.11c-1.44-0.46-1.65,0.91-2.42,1.42c-0.21,0.14-0.25,0.9-0.07,1.2
			c5.26,8.66,5.31,19.71-0.57,29.13c1.21,1.11,2.52,2.24,3.76,3.47c3.26,3.22,6.5,6.46,9.74,9.71c1.68,1.69,2.36,3.68,1.63,6.01
			c-0.67,2.14-2.19,3.43-4.35,3.89c-2.27,0.48-4.07-0.45-5.64-2.03c-3.81-3.84-7.65-7.65-11.46-11.48c-0.51-0.52-0.97-1.09-1.51-1.7
			c-7.84,4.74-16.01,5.77-24.5,2.69C11.84,54,7.02,49.6,3.7,43.54C-2.55,32.16,0.62,17.47,11.11,9.2
			C21.33,1.13,38.74,0.71,49.48,13.97z M52.95,30.77c0.04-13.92-11.19-25.14-25.2-25.18C13.93,5.56,2.72,16.88,2.66,30.93
			C2.61,44.52,13.93,55.8,27.68,55.86C41.67,55.92,52.91,44.76,52.95,30.77z M49.06,57.04c2.89,2.87,5.67,5.65,8.47,8.41
			c1.75,1.72,3.78,1.85,5.29,0.38c1.56-1.52,1.46-3.6-0.32-5.4c-2.46-2.49-4.94-4.96-7.42-7.43c-0.33-0.33-0.68-0.64-1.01-0.95
			C52.38,53.74,50.8,55.31,49.06,57.04z M49.75,47.74c-1.7,1.67-3.34,3.27-4.92,4.82c0.82,0.88,1.71,1.83,2.44,2.61
			c1.69-1.68,3.32-3.29,4.89-4.86C51.36,49.45,50.47,48.51,49.75,47.74z M57.3,9.98c-0.03-1.17-1-2.12-2.15-2.11
			c-1.12,0.01-2.14,1.02-2.16,2.14c-0.02,1.17,1.09,2.24,2.25,2.18C56.4,12.14,57.33,11.14,57.3,9.98z"/>
		<path class="st3" d="M27.93,7.84C40.6,7.92,50.86,18.28,50.81,30.93c-0.05,12.54-10.5,22.89-23.03,22.81
			C15.1,53.66,4.82,43.27,4.93,30.64C5.03,18.01,15.38,7.76,27.93,7.84z M45.93,20.9c-0.29,0.26-0.56,0.53-0.86,0.77
			c-0.99,0.76-1.31,1.55-1,2.94c0.71,3.17-2.24,5.76-5.39,4.83c-0.87-0.26-1.32-0.09-1.88,0.49c-1.8,1.85-3.63,3.67-5.48,5.47
			c-0.55,0.53-0.68,0.98-0.43,1.77c0.62,1.93-0.12,3.84-1.68,4.88c-1.45,0.96-3.56,0.93-4.97-0.07c-1.55-1.1-2.1-2.96-1.59-4.94
			c0.11-0.45-0.03-1.14-0.33-1.48c-1.14-1.27-2.35-2.47-3.61-3.62c-0.31-0.28-0.94-0.46-1.33-0.36c-2.4,0.63-4.17-0.06-5.45-2.2
			c-0.18-0.3-0.48-0.72-0.74-0.74c-1.29-0.08-2.58-0.03-3.84-0.03c-1.06,9.08,4.09,17.75,12.5,21.32
			c8.29,3.51,18.24,1.06,23.99-5.91C49.25,37.45,50.2,27.24,45.93,20.9z M44.88,19.06c-5.53-7.67-14.51-10.69-23.28-8.04
			C13.51,13.46,8.36,20.98,7.82,26.3c0.38,0.02,0.77,0.03,1.15,0.07c1.48,0.13,2.68,0.04,3.62-1.57c1-1.71,3.14-2.06,4.94-1.31
			c1.74,0.72,3.1,2.51,2.54,4.28c-0.62,2.01,0.42,2.92,1.58,4c0.57,0.53,1.14,1.07,1.64,1.66c0.72,0.84,1.42,1.29,2.62,0.79
			c0.61-0.25,1.43,0.08,2.15,0.04c0.55-0.03,1.25-0.06,1.61-0.4c1.85-1.73,3.59-3.57,5.42-5.33c0.65-0.63,0.91-1.12,0.63-2.12
			c-0.85-3.09,1.76-6.06,4.8-5.3c1.5,0.38,2.22-0.12,3.06-1.05C43.95,19.68,44.43,19.41,44.88,19.06z M39.81,23.16
			c-1.13,0.04-2.11,1.06-2.1,2.19c0.01,1.21,1.07,2.18,2.29,2.11c1.16-0.07,2.09-1.09,2.03-2.23
			C41.97,24.09,40.93,23.12,39.81,23.16z M28.91,38.43c0-1.15-1-2.17-2.14-2.16c-1.13,0-2.17,1.03-2.18,2.15
			c0,1.12,1.03,2.16,2.16,2.16C27.89,40.59,28.9,39.58,28.91,38.43z M18,27.52c0.01-1.15-0.97-2.14-2.15-2.15
			c-1.19-0.01-2.16,0.94-2.16,2.11c0,1.17,0.96,2.15,2.13,2.16C16.97,29.66,17.99,28.67,18,27.52z"/>
	</g>
</g>
</svg>
