<?xml version="1.0" encoding="utf-8"?>
<!-- Generator: Adobe Illustrator 24.0.2, SVG Export Plug-In . SVG Version: 6.00 Build 0)  -->
<svg version="1.1" xmlns="http://www.w3.org/2000/svg" xmlns:xlink="http://www.w3.org/1999/xlink" x="0px" y="0px"
	 viewBox="0 0 57 59" style="enable-background:new 0 0 57 59;" xml:space="preserve">
<style type="text/css">
	.st0{fill:#F4F4F4;}
	.st1{clip-path:url(#SVGID_2_);}
	.st2{opacity:0.67;}
	.st3{fill:#FFDE59;}
	.st4{opacity:0.14;fill:#FFDE59;}
	.st5{fill:#FFFFFF;}
	.st6{opacity:0.5;fill:#FFFFFF;}
	.st7{fill:#4F4F4F;}
	.st8{fill:none;stroke:#FFDE59;stroke-width:3;stroke-miterlimit:10;}
	.st9{fill:none;stroke:#4F4F4F;stroke-width:0.5;stroke-miterlimit:10;}
</style>
<g id="Capa_2">
</g>
<g id="Guias">
	<g>
		<path class="st3" d="M23.29,50.87c0,1.56,0.03,3.02-0.01,4.48c-0.04,1.75-0.73,2.47-2.49,2.48c-5.72,0.03-11.45,0.03-17.17,0
			c-1.74-0.01-2.52-0.76-2.56-2.46c-0.05-2.24-0.1-4.49,0.03-6.72c0.25-4.29,3.32-7.17,7.62-7.26c1.77-0.04,3.54-0.01,5.31-0.01
			c5.71-0.01,7.5,1.24,9.46,6.76c1.64,0,3.34,0,5.04,0c1.7,0,3.41,0,5.18,0c0.54-2.41,1.6-4.39,3.7-5.66
			c2.56-1.55,12.46-1.59,14.99-0.03c2.09,1.29,3.37,3.16,3.51,5.62c0.14,2.47,0.1,4.95,0.07,7.43c-0.02,1.58-0.9,2.34-2.48,2.34
			c-5.72-0.01-11.45,0.01-17.17-0.01c-1.77-0.01-2.46-0.71-2.51-2.46c-0.04-1.46-0.01-2.92-0.01-4.49
			C30.23,50.87,26.85,50.87,23.29,50.87z M36.51,55.08c0.89,0,1.56,0,2.36,0c0-1.78-0.09-3.43,0.05-5.06
			c0.04-0.55,0.64-1.05,0.99-1.58c0.39,0.53,1.08,1.04,1.13,1.6c0.15,1.68,0.05,3.37,0.05,5.04c2.68,0,5.07,0,7.58,0
			c0-1.78-0.08-3.43,0.05-5.06c0.04-0.55,0.64-1.05,0.99-1.58c0.39,0.53,1.07,1.04,1.12,1.61c0.15,1.67,0.05,3.37,0.05,5.04
			c0.94,0,1.61,0,2.39,0c0-2.3,0.12-4.48-0.03-6.64c-0.18-2.57-2.08-4.29-4.72-4.37c-2.42-0.08-4.84-0.07-7.26,0.02
			c-2.64,0.1-4.52,1.78-4.73,4.36C36.38,50.61,36.51,52.79,36.51,55.08z M20.59,55.14c0-1.96,0-3.72,0-5.48c0-0.41,0-0.83-0.05-1.24
			c-0.28-2.44-2.06-4.22-4.58-4.33c-2.53-0.11-5.07-0.11-7.6,0c-2.3,0.1-4.26,1.69-4.46,3.83c-0.23,2.37-0.05,4.78-0.05,7.16
			c0.85,0,1.52,0,2.33,0c0-1.71,0-3.29,0-4.87c0-0.84,0-1.88,1.17-1.68c0.43,0.08,0.94,1.06,1,1.67c0.14,1.61,0.05,3.24,0.05,4.87
			c2.63,0,5.01,0,7.54,0c0-1.72-0.1-3.32,0.05-4.89c0.06-0.61,0.66-1.17,1.01-1.76c0.41,0.59,1.1,1.15,1.17,1.77
			c0.17,1.61,0.06,3.26,0.06,4.93C19.09,55.14,19.72,55.14,20.59,55.14z"/>
		<path class="st3" d="M16.19,19.84c0.88-1.68,1.69-3.18,2.45-4.71c0.94-1.87,2.4-2.84,4.51-2.84c3.6,0.01,7.2,0.01,10.8,0
			c2.04,0,3.48,0.93,4.4,2.72c0.81,1.57,1.63,3.13,2.52,4.82c0.99-0.31,1.91-0.64,2.87-0.89c1.85-0.49,3.58,0.36,4.21,2.01
			c0.67,1.76-0.07,3.68-1.9,4.39c-1.64,0.64-3.36,1.35-5.07,1.45c-1.54,0.08-3.12-0.64-4.76-1.02c0,0.47,0,1.24,0,2.13
			c0.6,0.03,1.25-0.09,1.72,0.13c0.59,0.28,1.05,0.86,1.57,1.3c-0.52,0.45-1.03,0.92-1.58,1.32c-0.16,0.11-0.46,0.03-0.7,0.03
			c-5.84,0-11.68,0-17.53,0c-0.95,0-2.07,0.07-2.13-1.26c-0.07-1.46,1.08-1.43,2.12-1.44c0.35,0,0.69-0.05,1.14-0.08
			c0-0.85,0-1.63,0-2.74c-3.5,3.06-6.83,1.33-10.09,0.04c-1.67-0.66-2.3-2.54-1.7-4.16c0.6-1.63,2.23-2.56,3.97-2.17
			C14.04,19.11,15.03,19.48,16.19,19.84z M33.46,27.92c0-2.43-0.08-4.67,0.05-6.9c0.04-0.62,0.6-1.57,1.09-1.69
			c0.49-0.12,1.33,0.48,1.77,0.98c0.53,0.6,0.64,1.63,1.23,2.11c0.89,0.74,2.02,1.61,3.07,1.62c1.4,0.02,2.83-0.69,4.22-1.16
			c0.25-0.08,0.38-0.52,0.57-0.79c-0.33-0.17-0.7-0.52-0.99-0.47c-0.81,0.14-1.58,0.45-2.37,0.7c-2.16,0.68-2.73,0.45-3.81-1.6
			c-0.75-1.41-1.5-2.81-2.19-4.25c-0.52-1.1-1.34-1.54-2.53-1.53c-3.3,0.03-6.61,0.05-9.91-0.01c-1.37-0.02-2.2,0.54-2.77,1.75
			c-0.62,1.33-1.33,2.63-2.02,3.93c-1.15,2.19-1.69,2.4-4.1,1.63c-0.67-0.22-1.34-0.5-2.03-0.62c-0.33-0.06-0.72,0.19-1.08,0.31
			c0.23,0.34,0.4,0.87,0.72,1c1.15,0.46,2.33,0.87,3.53,1.13c1.54,0.33,2.79-0.27,3.62-1.62c0.37-0.6,0.56-1.35,1.02-1.85
			c0.54-0.57,1.31-0.93,1.97-1.39c0.38,0.71,1.03,1.4,1.08,2.14c0.15,2.15,0.05,4.32,0.05,6.55C27,27.92,30.1,27.92,33.46,27.92z"/>
		<path class="st3" d="M17.69,34.78c0.02,3.06-2.42,5.55-5.45,5.56c-3,0.01-5.53-2.54-5.5-5.54c0.03-2.97,2.42-5.37,5.4-5.42
			C15.23,29.32,17.67,31.69,17.69,34.78z M15.03,34.75c-0.05-1.51-1.41-2.77-2.91-2.69c-1.53,0.08-2.73,1.43-2.64,2.95
			c0.09,1.47,1.33,2.61,2.8,2.59C13.81,37.57,15.08,36.26,15.03,34.75z"/>
		<path class="st3" d="M33.98,5.89c-0.02,3.05-2.52,5.51-5.55,5.45c-2.93-0.05-5.41-2.54-5.42-5.45C23,2.87,25.49,0.38,28.52,0.36
			C31.56,0.34,34,2.81,33.98,5.89z M28.45,3.1c-1.55,0.05-2.76,1.34-2.7,2.88c0.06,1.54,1.37,2.7,2.94,2.61
			c1.47-0.08,2.65-1.33,2.63-2.78C31.3,4.3,29.99,3.05,28.45,3.1z"/>
		<path class="st3" d="M44.81,29.37c3.08,0,5.5,2.42,5.49,5.49c-0.01,3.02-2.56,5.54-5.54,5.48c-2.94-0.05-5.37-2.5-5.41-5.45
			C39.31,31.83,41.74,29.38,44.81,29.37z M47.63,34.76c-0.04-1.51-1.41-2.79-2.91-2.72c-1.52,0.07-2.76,1.44-2.67,2.95
			c0.09,1.47,1.33,2.62,2.8,2.61C46.39,37.58,47.67,36.27,47.63,34.76z"/>
	</g>
</g>
</svg>
